<svg id="Capa_1" data-name="Capa 1" xmlns="http://www.w3.org/2000/svg" viewBox="0 0 54 32"><defs><style>.cls-1{fill:#0097c6;}.cls-2{opacity:0.2;}.cls-3{fill:#fff;}.cls-4{fill:#0af;}</style></defs><path class="cls-1" d="M39.49,12.55l.64,0h.23l.4,0h1c.67,0,1.37,0,2,.06a4,4,0,0,1,3,1.82c2.29,3.43,4.54,6.85,6.71,10.16a2.83,2.83,0,0,1,.27.58l.1.25v4.44A2.64,2.64,0,0,1,52,31.84H2.06C.48,31.2.13,30.66.13,28.89V26.74A3.44,3.44,0,0,1,1,23.87q.21-.3.48-.72C2.26,22,3,20.79,3.83,19.61c1-1.56,2.1-3.17,3.13-4.76a4.6,4.6,0,0,1,4.1-2.24h3.49M27.09,30.79H50.66c1,0,1.5-.13,1.82-.46s.36-1,.33-1.82a.39.39,0,0,0-.39-.38H1.24l0,.35a2.39,2.39,0,0,0,.3,1.83,2.44,2.44,0,0,0,1.82.47ZM4.43,27.15l1.25,0H5.8a1.25,1.25,0,0,0,1.26-.88c1.23-2.86,2.5-5.76,3.73-8.57.44-1,.87-2,1.3-3,.05-.11.09-.23.14-.36l.07-.18.17-.44L12,13.72a6,6,0,0,0-.82-.06,4,4,0,0,0-3.54,2.05c-1.46,2.3-3,4.61-4.48,6.84L1.54,25a1.33,1.33,0,0,0-.18,1.48,1.44,1.44,0,0,0,1.35.7H4.43ZM42.92,13.68h-.56l.22.52.28.64c.2.45.38.88.56,1.31s.11.67-.35.87c-.28.12-.55.25-.8.38a1.28,1.28,0,0,0-.72,1.67c.18.56.37,1.12.55,1.66.13.37.26.75.38,1.12a1.33,1.33,0,0,0,1.14.95l.94.16c.48.09,1,.18,1.49.24a.79.79,0,0,1,.71.57L47.3,25c.21.49.44,1,.64,1.5a1,1,0,0,0,1,.67H49l1,0h1.28a1.42,1.42,0,0,0,1.38-.74A1.31,1.31,0,0,0,52.44,25l-3.12-4.72L47,16.7c-.1-.14-.19-.29-.29-.44-.28-.43-.57-.88-.89-1.3A3.28,3.28,0,0,0,43,13.68Zm-28.29-.49a3.1,3.1,0,0,0-.45.05c-.38.06-.67.95-.77,1.19-1.53,3.46-3.07,7-4.55,10.38l-.55,1.25-.15.37c0,.06,0,.12-.07.19l-.2.51H47.07l-.24-.53-.22-.52c-.22-.51-.43-1-.66-1.47a.92.92,0,0,0-.64-.42c-.54-.11-1.13-.21-1.8-.32a2.35,2.35,0,0,1-2-1.65l-.15-.44c-.27-.79-.55-1.61-.79-2.42a2.92,2.92,0,0,1-.1-1.06A2.37,2.37,0,0,1,42,16.36l.32-.15-.14-.33c0-.08-.07-.16-.1-.23a1.28,1.28,0,0,1-.12-.29c-.24-1.16-.91-2.21-2-2.21a3.13,3.13,0,0,0-.59,0Z"/><g class="cls-2"><ellipse cx="27.05" cy="25.43" rx="11.08" ry="0.93"/></g><path class="cls-1" d="M43.47,5.44C43.55,3.59,43.4.36,35.21.23V12.4h8.37Z"/><path class="cls-1" d="M11,5.44C11,3.59,11.1.36,19.09.23V12.4H10.93Z"/><path class="cls-3" d="M35.36.31c8.07.17,8.07,3.17,8.07,5.16L43.23,18a2.68,2.68,0,0,1-.71,1.8c-1.27,1.37-3.63,2.85-15.68,3h-.91c-10,0-13.42-2.43-14.41-3.47a1.61,1.61,0,0,1-.44-1.1V5.42c0-1.85-.07-4.94,7.86-5.11V9.05l.13,0a45.64,45.64,0,0,0,7.27.51,44.63,44.63,0,0,0,8.9-.79l.12,0V.31M35.21.16V8.65a43.36,43.36,0,0,1-8.87.79,45.92,45.92,0,0,1-7.25-.51V.16C10.42.3,10.93,3.9,10.93,5.71V18.29a1.76,1.76,0,0,0,.48,1.2C12.52,20.66,16,23,25.93,23h.92c11.74-.17,14.4-1.57,15.78-3.07a2.81,2.81,0,0,0,.75-1.9l.2-12.56c0-2.16-.19-5.18-8.37-5.31Z"/><rect class="cls-4" x="22.65" y="14.73" width="2.96" height="1.19"/><rect class="cls-4" x="28.78" y="14.74" width="2.96" height="0.87"/><path class="cls-4" d="M26.43,9.21C11.13,9.21,11,4.21,11,4V18.38a1.84,1.84,0,0,0,.48,1.24c1.15,1.25,4.8,3.79,15.49,3.64,11.78-.17,14.44-1.63,15.83-3.18a2.94,2.94,0,0,0,.75-2l.1-13.67S42,9.21,26.43,9.21ZM26.84,19H25.61V17.15h-3V19H21.41V14.11l.62-.62h4.2l.61.62Zm5.1,0-.85-2.1H28.78V19H27.54V14.11l.62-.62h4.2l.61.62v2.12l-.61.63h0l.86,2.1Z"/></svg>