<svg id="Capa_1" data-name="Capa 1" xmlns="http://www.w3.org/2000/svg" viewBox="0 0 54 56"><defs><style>.cls-1{fill:#0097c6;}.cls-2,.cls-3,.cls-4,.cls-5,.cls-6{fill:#006f96;}.cls-2{opacity:0.1;}.cls-3{opacity:0.05;}.cls-4{opacity:0.7;}.cls-5{opacity:0.3;}.cls-6{opacity:0.9;}.cls-7{fill:#fff;}.cls-8{fill:#0af;}</style></defs><path class="cls-1" d="M39.55,35.35l.64,0h.24l.39,0h1c.68,0,1.38,0,2.05.06a4,4,0,0,1,3,1.83c2.31,3.44,4.56,6.88,6.75,10.21a4,4,0,0,1,.27.58,2.6,2.6,0,0,0,.1.25v4.47a2.7,2.7,0,0,1-1.92,1.92H1.94C.35,54.09,0,53.55,0,51.77V49.6a3.41,3.41,0,0,1,.88-2.87L1.36,46l2.35-3.56c1-1.56,2.12-3.18,3.16-4.78A4.59,4.59,0,0,1,11,35.41h3.5m12.6,18.26,23.68,0h0c1,0,1.51-.13,1.83-.47s.36-1,.33-1.82a.4.4,0,0,0-.39-.39H1.12l0,.35a2.41,2.41,0,0,0,.3,1.84,2.42,2.42,0,0,0,1.83.48ZM4.32,50l1.26,0H5.7A1.25,1.25,0,0,0,7,49.16c1.23-2.87,2.51-5.78,3.74-8.6.44-1,.88-2,1.31-3,.05-.11.09-.23.14-.36l.07-.18.17-.45-.48-.06a5.87,5.87,0,0,0-.82-.06,4,4,0,0,0-3.55,2.05c-1.46,2.32-3,4.64-4.51,6.88L1.42,47.84a1.3,1.3,0,0,0-.18,1.48A1.45,1.45,0,0,0,2.59,50H4.32ZM43,36.49h-.57l.23.52.27.64c.2.45.39.88.57,1.31s.11.68-.36.88l-.79.38a1.27,1.27,0,0,0-.73,1.68c.18.56.37,1.13.56,1.67l.37,1.12a1.34,1.34,0,0,0,1.15,1l.94.16c.49.09,1,.18,1.5.24a.81.81,0,0,1,.72.57c.17.41.35.82.53,1.23s.45,1,.65,1.51A1,1,0,0,0,49,50h.07l1,0H51.4a1.41,1.41,0,0,0,1.38-.75,1.3,1.3,0,0,0-.22-1.47l-3.14-4.75-2.34-3.54-.28-.44c-.29-.43-.58-.88-.9-1.31a3.31,3.31,0,0,0-2.8-1.28ZM14.57,36a3.14,3.14,0,0,0-.45,0c-.39.06-.67,1-.78,1.2-1.53,3.47-3.08,7-4.57,10.43l-.55,1.25c-.05.12-.1.24-.15.38a1.34,1.34,0,0,1-.07.18L7.8,50H47.16l-.23-.53-.23-.53c-.22-.51-.43-1-.66-1.47A.94.94,0,0,0,45.4,47c-.54-.11-1.13-.21-1.81-.32a2.36,2.36,0,0,1-2-1.66l-.15-.44c-.27-.79-.56-1.62-.79-2.43a2.74,2.74,0,0,1-.1-1.06,2.38,2.38,0,0,1,1.52-2l.32-.16-.14-.33c0-.08-.07-.16-.1-.23a2,2,0,0,1-.12-.29C41.75,37,41.07,36,40,36a4.27,4.27,0,0,0-.59,0Z"/><ellipse class="cls-2" cx="26.94" cy="42.43" rx="14.93" ry="4.06"/><ellipse class="cls-3" cx="26.89" cy="45.93" rx="13.46" ry="3.66"/><ellipse class="cls-4" cx="26.95" cy="34.59" rx="19.05" ry="5.18"/><ellipse class="cls-5" cx="26.95" cy="39.04" rx="16.26" ry="4.42"/><path class="cls-6" d="M47.15,30.35c0,3-9,5.36-20.2,5.36s-20.2-2.4-20.2-5.36S15.84,28,27,28,47.15,27.4,47.15,30.35Z"/><path class="cls-1" d="M48.39,8.15c.1-2.45-.09-6.71-10.9-6.89v16h11Z"/><path class="cls-1" d="M5.61,8.15C5.52,5.7,5.7,1.44,16.24,1.26v16H5.48Z"/><path class="cls-7" d="M37.69,1.48c10.64.23,10.64,4.19,10.64,6.81l-.26,16.56a3.54,3.54,0,0,1-.93,2.37c-1.68,1.81-4.8,3.76-20.68,4H25.25c-13.23,0-17.69-3.2-19-4.57a2.12,2.12,0,0,1-.57-1.45V8.6c0-.12,0-.25,0-.39,0-2.43-.09-6.5,10.37-6.73V13l.17,0a59.89,59.89,0,0,0,9.58.68,58,58,0,0,0,11.75-1.05l.15,0V1.48m-.2-.2v11.2a57.44,57.44,0,0,1-11.7,1,58.91,58.91,0,0,1-9.55-.68V1.28C4.8,1.47,5.48,6.21,5.48,8.6V25.19a2.27,2.27,0,0,0,.63,1.58c1.46,1.54,6,4.64,19.14,4.64h1.21c15.49-.22,19-2.07,20.82-4a3.75,3.75,0,0,0,1-2.51l.26-16.56c0-2.86-.25-6.83-11-7Z"/><rect class="cls-8" x="19.42" y="20.43" width="4.83" height="1.94"/><rect class="cls-8" x="29.42" y="20.45" width="4.83" height="1.43"/><path class="cls-8" d="M25.86,13.12c-20.17,0-20.38-6.6-20.38-6.84V25.2a2.42,2.42,0,0,0,.63,1.64c1.52,1.64,6.34,5,20.42,4.79,15.54-.22,19-2.14,20.89-4.18a3.89,3.89,0,0,0,1-2.6l.13-18S46.37,13.12,25.86,13.12Zm.41,14.23h-2v-3H19.42v3h-2V19.42l1-1h6.85l1,1Zm8.32,0-1.4-3.44H29.42v3.44h-2V19.42l1-1h6.85l1,1v3.46l-1,1h0l1.4,3.44Z"/></svg>