<?xml version="1.0" encoding="UTF-8"?>
<svg id="Layer_1" data-name="Layer 1" xmlns="http://www.w3.org/2000/svg" viewBox="0 0 507 480">
  <defs>
    <style>
      .cls-1 {
        fill: #fff;
      }

      .cls-2 {
        fill: #eeeff2;
      }

      .cls-3 {
        fill: #15eeff;
        opacity: .3;
      }

      .cls-4 {
        fill: #00f9ff;
      }

      .cls-4, .cls-5 {
        opacity: .7;
      }

      .cls-6 {
        fill: #0af;
      }

      .cls-7 {
        fill: #0097c6;
      }

      .cls-5 {
        fill: #0098ff;
      }
    </style>
  </defs>
  <g>
    <polygon class="cls-2" points="227.1 104.22 247.46 82.61 228.83 90.34 226.85 104.29 227.1 104.22"/>
    <polygon class="cls-2" points="247.53 81.9 235.27 66.81 217.06 79.23 228.61 89.75 247.53 81.9"/>
    <polygon class="cls-2" points="227.97 90.03 216.52 79.6 210.28 83.86 208.45 84.91 220.33 94.19 227.97 90.03"/>
    <path class="cls-2" d="m265.02,98.07c.4-.33.4-.93,0-1.27l-16.73-14.15-11.85,12.58,15.7,13.54,12.88-10.71Z"/>
    <polygon class="cls-2" points="210.02 66.28 210.66 65.99 215.78 62.88 215.79 61.17 210.11 63.2 210.02 66.28"/>
    <polygon class="cls-2" points="231.46 54.75 235.48 65.92 256.41 52.71 256.66 52.5 247.25 44.51 231.46 54.75"/>
    <polygon class="cls-2" points="232.71 67.79 216.09 74.52 216.88 78.59 232.71 67.79"/>
    <polygon class="cls-2" points="216.31 78.98 215.49 74.76 208.36 77.61 208.25 84.29 209.95 83.32 216.31 78.98"/>
    <path class="cls-2" d="m267.19,96.33l11.72-8.99.47-.32-11.76-20.36-18.45,15.04h0s-.46.49-.46.49l16.67,14.09c.51.43,1.26.45,1.8.04Z"/>
    <polygon class="cls-2" points="216.97 60.07 230.72 54.42 229.07 46.28 213.28 51.82 216.28 60.31 216.97 60.07"/>
    <path class="cls-2" d="m166.73,78.04l-1.06-2.49c-.02-.06-.11-.05-.12.02l-.44,3.73c-.04.3.09.6.32.8l1.97,1.6c.08.06.19,0,.16-.1l-.65-2.95c-.05-.2-.11-.4-.19-.6Z"/>
    <polygon class="cls-2" points="215.7 60.52 212.68 52.03 212.16 52.21 205.72 54.38 209.96 62.58 215.7 60.52"/>
    <polygon class="cls-2" points="209.35 62.79 205.12 54.59 190.69 60.11 190.2 60.36 193.8 67.82 209.35 62.79"/>
    <polygon class="cls-2" points="172.04 70.13 165.85 74.35 167.44 78.08 167.46 78.14 167.47 78.19 167.66 79.05 174.45 75.25 172.04 70.13"/>
    <polygon class="cls-2" points="193.19 68.02 189.63 60.65 184.54 63.27 187.6 69.88 193.19 68.02"/>
    <polygon class="cls-2" points="274.33 26.64 279.63 33.68 311.07 20.71 300.21 13.79 274.33 26.64"/>
    <polygon class="cls-2" points="273.35 26.48 270.91 24.08 271.35 23.63 273.92 26.14 297.12 14.61 271.64 23.08 241.06 39.88 240.75 40.05 247.26 43.74 273.35 26.48"/>
    <polygon class="cls-2" points="293.57 77.34 284.52 48.56 268.39 66.04 268.12 66.25 279.91 86.66 293.57 77.34"/>
    <polygon class="cls-2" points="247.8 44.15 257.16 52.1 279.1 34.01 273.78 26.95 247.8 44.15"/>
    <polygon class="cls-2" points="246.67 44.13 240.09 40.41 229.67 46.04 231.3 54.1 246.67 44.13"/>
    <polygon class="cls-2" points="175.4 74.72 187 70.1 183.98 63.56 173.55 69.1 172.57 69.77 174.99 74.95 175.4 74.72"/>
    <polygon class="cls-2" points="285.02 48.04 294.1 76.92 332.21 43.43 311.75 21.23 285.02 48.04"/>
    <polygon class="cls-2" points="332.43 44.53 332.4 44.11 294.32 77.56 301.37 93.09 326.52 67.62 332.43 44.53"/>
    <polygon class="cls-2" points="181.75 79.49 187.34 85.65 187.58 85.54 207.54 77.26 202.3 70.35 184.15 78.31 181.75 79.49"/>
    <polygon class="cls-2" points="187.73 70.5 187.17 76.3 192.79 73.83 193.27 68.66 187.73 70.5"/>
    <path class="cls-2" d="m299.48,104.84l18.96-7.71c.37-.15.64-.47.74-.85l6.88-26.86c.04-.16-.15-.27-.27-.15l-24.15,24.45.15.33-2.4,9.43.23.18-.04.35-.1.83Z"/>
    <polygon class="cls-2" points="256.79 53.22 235.79 66.48 248.14 81.64 248.39 81.54 267.27 66.13 257.11 52.96 256.79 53.22"/>
    <path class="cls-2" d="m342.72,33.18l1.21,14.52,36.01-10.81c-7.48-4.68-15.22-8.98-23.22-12.83l-13.99,9.12Z"/>
    <path class="cls-2" d="m324.04,13.74l18.4,18.87,13.6-8.86c-9.67-4.61-19.69-8.59-30.02-11.9l-1.98,1.89Z"/>
    <path class="cls-2" d="m311.36,9.86l-.07.04-.07.02-2.19.73,14.46,2.73,1.84-1.76c-3.8-1.2-7.64-2.32-11.53-3.33l-2.45,1.56Z"/>
    <polygon class="cls-2" points="209.47 63.41 193.93 68.45 193.46 73.54 209.38 66.56 209.47 63.41"/>
    <polygon class="cls-2" points="257.6 52.55 267.76 65.73 267.95 65.57 284.3 47.87 279.39 34.59 257.6 52.55"/>
    <polygon class="cls-2" points="217.2 60.66 216.42 60.94 216.42 62.49 217.92 61.58 225.86 57.1 217.2 60.66"/>
    <polygon class="cls-2" points="310.42 21.66 279.94 34.24 284.79 47.37 310.42 21.66"/>
    <polygon class="cls-2" points="210.02 66.96 215.83 73.94 234.91 66.22 230.89 55.03 230.58 55.16 230.58 55.16 218.24 62.13 210.96 66.56 210.02 66.96"/>
    <polygon class="cls-2" points="175.26 75.52 175.39 75.8 176.14 81.55 180.72 79.3 180.69 79.26 181.16 78.84 181.31 79 183.89 77.74 186.5 76.59 187.06 70.76 175.67 75.29 175.26 75.52"/>
    <polygon class="cls-2" points="188.47 96.03 188.31 96.05 187.01 86.51 180.05 89.81 179.6 90.03 180.16 101.79 188.47 96.03"/>
    <polygon class="cls-2" points="179.34 89.45 179.78 89.23 186.74 85.94 181.16 79.78 173.92 83.34 179.34 89.45"/>
    <polygon class="cls-2" points="215.21 74.19 209.42 67.23 202.9 70.09 208.15 77.01 215.21 74.19"/>
    <polygon class="cls-2" points="207.72 77.87 187.84 86.12 187.61 86.23 188.91 95.73 191.81 93.72 207.61 84.66 207.72 77.87"/>
    <polygon class="cls-2" points="199.61 103.96 199.72 103.91 191.68 94.58 182.99 100.6 191.51 110.01 199.61 103.96"/>
    <path class="cls-2" d="m313.51,113.12l5.11-14.98c.06-.18-.12-.35-.29-.28l-18.01,7.33c-.57.23-.97.75-1.04,1.36l-.95,7.56v.07s-.02.04-.02.04l14.25-.4c.44-.01.82-.29.96-.71Z"/>
    <polygon class="cls-2" points="313.08 114.44 298.07 114.87 295.68 121.64 310.76 122.57 313.08 114.44"/>
    <path class="cls-2" d="m295.42,135.12l12.01-.85h0s2.99-10.5,2.99-10.5c.08-.3-.13-.6-.44-.62l-13.87-.86c-.32-.02-.59.23-.61.55l-.53,11.84c-.01.25.2.45.45.43Z"/>
    <path class="cls-2" d="m304.32,147.56l2.84-12.4c.03-.12-.07-.23-.19-.22l-11.68.83c-.19.01-.33.17-.33.36v9.17c0,.15.1.28.24.32l8.37,2.38c.33.09.67-.11.75-.44Z"/>
    <path class="cls-2" d="m303.56,148.66l-7.68-2.19c-.15-.04-.27.12-.19.25l5.05,8.03c.26.41.67.71,1.14.84l7.11,1.88.04-.08-4.52-7.98c-.21-.37-.55-.64-.96-.75Z"/>
    <path class="cls-2" d="m301.01,94.56c.07-.29.05-.61-.08-.88l-6.66-14.69c-.06-.13-.26-.11-.28.04l-2.91,16.84c-.09.51.11,1.03.51,1.36l6.89,5.54c.17.13.41.05.47-.16l2.05-8.04Z"/>
    <polygon class="cls-2" points="227.9 126.17 226.12 135.55 241.94 126.3 242.11 126.16 244.21 115.04 227.9 126.17"/>
    <polygon class="cls-2" points="172.59 83.29 175.54 81.84 174.77 75.93 174.72 75.82 167.8 79.7 168.43 82.5 171.86 83.15 172.59 83.29"/>
    <path class="cls-2" d="m279.29,87.85l-12.06,9.25c-.42.32-.69.8-.75,1.32l-1.19,10.42c-.03.28.26.49.51.37l12.2-5.87h.02s1.41-15.59,1.41-15.59l-.14.1Z"/>
    <path class="cls-2" d="m292.98,78.51l-12.08,8.25c-.5.34-.81.88-.87,1.48l-1.28,14.19c-.02.23.22.39.42.28l11.07-6.08.09-.05,3.07-17.79c.04-.23-.22-.4-.42-.27Z"/>
    <path class="cls-2" d="m265.32,98.64l-12.38,10.3c-.61.51-1.03,1.21-1.18,1.99l-1.6,8.07c-.05.26.24.45.46.3l13.82-9.42.04-.03.04-.02h.02s1.25-10.94,1.25-10.94c.03-.25-.27-.41-.46-.25Z"/>
    <path class="cls-2" d="m307.93,135.97c-.07-.1-.23-.07-.25.05l-2.84,12.14c-.05.23-.02.47.1.68l4.27,7.53c.07.12.25.12.31-.01l4.68-10.46c.13-.28.1-.61-.08-.87l-6.18-9.05Z"/>
    <polygon class="cls-2" points="333.01 56.62 333.27 56.4 333.32 56.36 332.58 46.51 327.16 67.68 335.11 74.91 333.05 56.96 333.01 56.62"/>
    <polygon class="cls-2" points="332.67 42.99 341.96 33.03 323.53 14.13 312.26 20.84 332.67 42.99"/>
    <polygon class="cls-2" points="333.92 55.85 343.26 47.95 343.31 47.91 342.13 33.76 332.99 43.57 333.92 55.85"/>
    <polygon class="cls-2" points="300.78 13.4 311.72 20.36 311.82 20.37 322.7 13.89 307.78 11.07 300.78 13.4"/>
    <path class="cls-2" d="m380.66,37.34l-36.67,11.01-.31.09-9.69,8.19-.3.25,2.14,18.67.05.48-9.13,31.45-.11.39-4.33,16.23-.1.37-3.13,9.97-.12.4-3.86,10.51-.13.37-5.21,11.64-.39.87.07-.15-.07.15-8.61-2.27-6.2-9.86-.25-.4v-10.33s.6-13.13.6-13.13h0s.13-.63.13-.63l2.48-7.03.11-.32.07-.21,1.07-8.56.05-.36.15-1.18-.27-.22-8.14-6.54-11.92,6.54-.34.18-13.16,6.33-.34.16-14.83,10.12-.12.1-.39.32-6.76,5.57-.38.32-16.34,9.55-.36.21-7.05,4.81-.36.25-12.04,7.16-.33.2-9.36,3.23-.66-.24-6.7-6.79-.66-3.35.08-.08h0s.23-.23.23-.23l8.54-8.72h0s.23-.23.23-.23l.54-.55,11.21-11.45.22-.23.03.03,6.66-5.59,9.52-9.02.57-.63-6.69,1.9-.05.02-.33.15-19.06,8.56-.32.15-7.47,3.41-.31.14-.7.32-14.48,8.25-8.93,2.83-1.03-.97h0s-.01-.02-.01-.02l-4.98-4.68-1.32-4.63-.24-.83,8.64-9.07.22-.23,8.39-6.81-10.49,2.41-.63.05-9.89-.62h0s-.45-.47-.45-.47l-3.33-3.48-1.26-5.36.09-.91,4.93-3.36,8.66-4.82,6.54-3.29-3.22-.61-.66-.29-3.47-2.82.69-5.9v-.06s.35-.24.35-.24l6.33-4.32.27-.18,1.19-.81,10.49-5.57.28-.15,6.44-3.31,14.7-5.62.3-.1,6.52-2.2,16.99-5.96.3-.11,10.52-5.69.33-.18.66-.36,30.63-16.83,35.74-11.88.62-.21,3.28-1.09,1.96-1.25c-19.17-4.94-39.26-7.57-59.98-7.57C120.73.5,13.5,107.73,13.5,240c0,72.16,31.91,136.86,82.39,180.76l12.5-3.52.31-.09,55.89-13.88.31-.08,10.07-7.72.31-.24-1.24-18.75-.03-.48,10.63-30.97.14-.38,5.1-16,.12-.37,3.6-9.8.14-.39,4.36-10.32.15-.36,5.76-11.37.36-.71.07-.15,8.49,2.69,5.73,10.15.23.41-.51,10.32-1.22,13.09-.16.62-2.82,6.91-.13.31-.08.21-1.48,8.49-.06.36-.21,1.17.26.24,7.82,6.92,12.22-5.96.34-.17,13.45-5.69.34-.15,15.3-9.39.12-.09.4-.31,7.03-5.24.39-.3,16.78-8.75.37-.19,7.28-4.46.37-.24,12.37-6.57.34-.18,9.51-2.77.65.27,6.37,7.12.5,3.37-.09.08h0s-.24.23-.24.23l-8.95,8.3h0s-.24.22-.24.22l-.56.51-11.75,10.9-.23.22-.03-.03-6.92,5.27-9.95,8.55-.6.6,6.78-1.57.05-.03.34-.13,19.45-7.64.33-.13,7.63-3.04.31-.12.72-.29,14.86-7.54,9.05-2.4.99,1.01h0v.03s4.77,4.91,4.77,4.91l1.09,4.69.19.84-9.07,8.65-.23.22-8.71,6.4,10.59-1.9.64-.03,9.84,1.1h0l.42.49,3.16,3.63,1,5.42-.13.9-5.08,3.12-8.89,4.4-6.7,2.96,3.19.77.65.32,3.33,2.98-.98,5.86v.05s-.37.22-.37.22l-6.53,4.01-.27.17-1.23.76-10.75,5.06-.29.13-6.58,2.99-14.95,4.91-.31.09-6.62,1.88-17.26,5.13-.31.1-10.79,5.17-.34.17-.67.32-31.41,15.34-36.27,10.14-.63.18-3.32.92-32.09,18.39c27.64,11.14,57.83,17.28,89.45,17.28,132.27,0,239.5-107.23,239.5-239.5,0-85.34-44.64-160.24-111.84-202.66Z"/>
    <path class="cls-2" d="m314.01,115.22c-.16-.19-.46-.12-.53.11l-2.05,7.31.29.12,6.61,10.51c.12.19.4.15.46-.06l2.64-8.43c.1-.33.03-.68-.19-.94l-7.24-8.62Z"/>
    <path class="cls-2" d="m326.73,69.35l-6.87,26.82c-.14.56-.04,1.16.29,1.64l5.71,8.37c.17.24.54.18.63-.1l8.74-30.11v-.12s-7.5-6.81-7.5-6.81c-.34-.31-.88-.14-1,.3Z"/>
    <path class="cls-2" d="m311.36,123.36s-.1-.04-.12.02l-3.22,11.23c-.05.17-.02.36.08.51l6.48,9.5s.1.03.11-.01l3.61-9.85c.05-.13.03-.27-.04-.39l-6.91-11Z"/>
    <polygon class="cls-2" points="220.23 130.87 218.69 140.54 225.25 136.06 225.27 136.05 225.29 136.04 225.4 135.97 227.16 126.66 220.23 130.87"/>
    <path class="cls-2" d="m319.16,98.5l-5.06,14.85c-.15.43-.06.92.24,1.27l6.93,8.25c.23.27.67.17.76-.17l4-14.99.04-.12-6.26-9.18c-.16-.24-.53-.19-.63.09Z"/>
    <polygon class="cls-2" points="244.95 114.54 242.87 125.53 249.26 120.27 251.24 110.25 244.95 114.54"/>
    <polygon class="cls-2" points="176.59 119.36 177.36 126.99 191 119.22 191.03 119.21 191.05 119.19 191.67 118.92 191.18 110.96 176.59 119.36"/>
    <polygon class="cls-2" points="190.97 110.36 182.47 100.96 179.38 102.97 177.98 104.1 169.83 110.72 176.33 118.78 190.97 110.36"/>
    <polygon class="cls-2" points="165.66 126.26 167.37 129.47 168.07 130.13 176.59 127.43 176.76 127.33 175.99 119.73 165.66 126.26"/>
    <path class="cls-2" d="m164.8,126.08l-3.19-4.16.75,2.65c.05.18.15.34.28.46l3.3,3.09-.85-1.59c-.08-.16-.18-.31-.29-.45Z"/>
    <polygon class="cls-2" points="179.54 102.13 178.97 90.34 166.02 96.7 167.01 105.39 177.43 102.99 179.06 102.6 179.54 102.13"/>
    <polygon class="cls-2" points="175.78 119.11 169.37 111.15 161.03 119.9 161.13 120.27 165.32 125.73 175.78 119.11"/>
    <polygon class="cls-2" points="155.64 100.56 156.69 104.67 156.85 104.83 166.38 105.43 165.41 96.95 155.64 100.56"/>
    <polygon class="cls-2" points="206.55 141.81 206.19 148.04 217.85 141.11 217.97 141.03 219.5 131.43 206.55 141.81"/>
    <polygon class="cls-2" points="178.75 89.74 173.39 83.7 172.03 84.34 165.49 87.63 161.26 89.98 165.77 96.12 178.75 89.74"/>
    <path class="cls-2" d="m154.87,100.38l-2.11-2.67c-.07-.09-.22-.02-.19.09l.75,3.16c.03.15.11.28.21.39l2.13,2.22s.11,0,.1-.05l-.73-2.87c-.03-.1-.07-.2-.14-.28Z"/>
    <polygon class="cls-2" points="165.17 96.37 160.7 90.29 156.87 92.42 152.07 95.7 152.1 95.87 155.37 99.99 165.17 96.37"/>
    <polygon class="cls-2" points="244.15 114.31 230.37 101.91 230.8 101.44 244.69 113.95 251.42 109.36 251.48 109.04 236 95.7 228.3 103.88 226.83 105.54 216.6 115.24 216.58 115.25 216.58 115.25 227.64 125.58 244.15 114.31"/>
    <polygon class="cls-2" points="227.07 125.96 227.1 125.94 216.09 115.67 209.96 120.81 219.98 130.28 227.07 125.96"/>
    <path class="cls-2" d="m195.29,148.61l-5.82-5.89c-.08-.08-.21,0-.19.1l.35,1.79c.03.18.12.34.25.47l5.6,5.68c.08.08.22.02.21-.1l-.11-1.42c-.02-.24-.12-.46-.29-.63Z"/>
    <polygon class="cls-2" points="219.46 130.65 209.49 121.24 198.5 132.47 198.17 132.8 206.27 141.22 219.46 130.65"/>
    <polygon class="cls-2" points="197.73 133.25 189.41 141.75 195.9 148.32 205.75 141.6 197.73 133.25"/>
    <polygon class="cls-2" points="196.4 151.58 205.54 148.42 205.89 142.27 196.19 148.89 196.4 151.58"/>
    <polygon class="cls-2" points="220.6 94.76 219.57 106.36 226.22 104.47 226.19 104.41 228.14 90.65 220.6 94.76"/>
    <polygon class="cls-2" points="200.54 104.22 200.15 115.05 218.91 106.62 219.94 95.09 200.54 104.22"/>
    <polygon class="cls-2" points="219.7 94.5 207.86 85.25 192.21 94.22 200.31 103.63 219.7 94.5"/>
    <polygon class="cls-2" points="192.28 118.63 199.5 115.34 199.9 104.53 191.79 110.59 192.28 118.63"/>
    <path class="cls-6" d="m307.74,10.41l-.62.21-35.74,11.88-30.63,16.83-.66.36-.33.18-10.52,5.69-.3.11-16.99,5.96-6.52,2.2-.3.1-14.7,5.62-6.44,3.31-.28.15-10.49,5.57-1.19.81-.27.18-6.33,4.32-.35.24v.06s-.7,5.9-.7,5.9l3.47,2.82.66.29,3.22.61-6.54,3.29-8.66,4.82-4.93,3.36-.09.91,1.26,5.36,3.33,3.48.45.47h0s9.89.62,9.89.62l.63-.05,10.49-2.41-8.39,6.81-.22.23-8.64,9.07.24.83,1.32,4.63,4.98,4.68v.02s.02,0,.02,0l1.03.97,8.93-2.83,14.48-8.25.7-.32.31-.14,7.47-3.41.32-.15,19.06-8.56.33-.15.05-.02,6.69-1.9-.57.63-9.52,9.02-6.66,5.59-.03-.03-.22.23-11.21,11.45-.54.55-.23.22h0s-8.54,8.73-8.54,8.73l-.23.23h0s-.08.09-.08.09l.66,3.35,6.7,6.79.66.24,9.36-3.23.33-.2,12.04-7.16.36-.25,7.05-4.81.36-.21,16.34-9.55.38-.32,6.76-5.57.39-.32.12-.1,14.83-10.12.34-.16,13.16-6.33.34-.18,11.92-6.54,8.14,6.54.27.22-.15,1.18-.05.36-1.07,8.56-.07.21-.11.32-2.48,7.03-.13.63h0s-.59,13.13-.59,13.13v10.33s.24.4.24.4l6.2,9.86,8.61,2.27.39-.87,5.21-11.64.13-.37,3.86-10.51.12-.4,3.13-9.97.1-.37,4.33-16.23.11-.39,9.13-31.45-.05-.48-2.14-18.67.3-.25,9.69-8.19.31-.09,36.67-11.01c-.24-.15-.48-.3-.72-.45l-36.01,10.81-1.21-14.52,13.99-9.12c-.22-.11-.45-.21-.68-.32l-13.6,8.86-18.4-18.87,1.98-1.89c-.23-.07-.46-.15-.69-.22l-1.84,1.76-14.46-2.73,2.19-.73.07-.02.07-.04,2.45-1.56c-.28-.07-.55-.15-.83-.22l-1.96,1.25-3.28,1.09Zm-8.34,93.07l2.4-9.43-.15-.33,24.15-24.45c.11-.12.31,0,.27.15l-6.88,26.86c-.1.38-.37.7-.74.85l-18.96,7.71.1-.83.04-.35-.23-.18Zm1.97-10.38l-7.04-15.53,38.07-33.45.03.42-5.91,23.09-25.15,25.47Zm-7.27-16.18l-9.07-28.88,26.73-26.81,20.46,22.2-38.12,33.49Zm-91.79-6.57l5.24,6.91-19.96,8.28-.24.12-5.59-6.16,2.4-1.18,18.15-7.96Zm-15.13,5.95l.56-5.79,5.55-1.84-.48,5.17-5.62,2.47Zm6.29-2.76l.47-5.09,15.54-5.03-.1,3.14-15.92,6.98Zm-6.95,3.05l-2.62,1.15-2.58,1.27-.15-.17-.47.43.03.03-4.58,2.25-.75-5.75-.13-.28.41-.23,11.39-4.53-.56,5.83Zm-5.34,3.19l5.58,6.15-6.96,3.3-.43.21-5.42-6.11,7.24-3.56Zm-1.11,10.02l6.95-3.29,1.3,9.54.16-.02-8.31,5.76-.57-11.76.46-.22Zm11.63,4.77l8.04,9.33-.11.05-8.1,6.05-8.52-9.41,8.69-6.02Zm-2.77,1.15l-1.3-9.5.23-.11,19.88-8.25-.11,6.79-15.79,9.05-2.91,2.01Zm14-25.64l6.52-2.86,5.79,6.96-7.06,2.82-5.25-6.92Zm15.34-7.96l12.34-6.96h0s.31-.13.31-.13l4.02,11.19-19.09,7.73-5.8-6.98.93-.41,7.29-4.43Zm-1.82.37v-1.56s.78-.28.78-.28l8.66-3.56-7.93,4.48-1.5.91Zm67.88-14.62l-16.35,17.7-.19.15-10.17-13.18,21.8-17.96,4.91,13.29Zm-4.36-13.64l30.48-12.58-25.64,25.71-4.85-13.14Zm-12.67,31.89l-18.89,15.41-.25.1-12.35-15.17,21-13.25.32-.26,10.17,13.17Zm-10.12-14.03l-9.36-7.95,25.98-17.19,5.32,7.05-21.94,18.09Zm-.49.41l-.25.21-20.93,13.22-4.02-11.18,15.79-10.24,9.41,7.99Zm-23.95,15.29l-15.83,10.8-.79-4.07,16.62-6.73Zm-16.93-4.91l-5.12,3.11-.64.28.09-3.08,5.68-2.03v1.71Zm-7.42,14.73l7.13-2.85.82,4.22-6.37,4.34-1.7.97.11-6.68Zm1.92,6.25l6.24-4.26,11.44,10.43-7.63,4.16-11.88-9.28,1.83-1.05Zm6.78-4.63l18.2-12.42,12.27,15.08-18.93,7.85-11.54-10.52Zm11.76,11.11l18.63-7.73-20.35,21.61-.25.07,1.98-13.95Zm19.46-7.69l16.73,14.15c.39.33.39.94,0,1.27l-12.88,10.71-15.7-13.54,11.85-12.58Zm.43-.46l.46-.49h0s18.45-15.05,18.45-15.05l11.76,20.36-.47.32-11.72,8.99c-.53.41-1.28.39-1.8-.04l-16.67-14.09Zm19.39-15.94l.27-.22,16.14-17.47,9.04,28.78-13.66,9.32-11.79-20.41Zm11.51-32.58l-5.3-7.04,25.88-12.85,10.86,6.92-31.45,12.97Zm-38.57,6.21l30.58-16.8,25.48-8.47-23.21,11.53-2.57-2.52-.44.45,2.45,2.4-26.09,17.26-6.52-3.69.31-.17Zm-.97.53l6.58,3.72-15.37,9.98-1.64-8.06,10.42-5.63Zm-11.02,5.87l1.65,8.14-13.75,5.65-.69.25-3.01-8.5,15.79-5.54Zm-16.91,5.93l.52-.18,3.02,8.49-5.75,2.06-4.23-8.2,6.44-2.17Zm-21.47,7.9l14.43-5.52,4.23,8.2-15.55,5.04-3.6-7.46.49-.25Zm-1.06.54l3.56,7.37-5.59,1.86-3.06-6.61,5.09-2.61Zm-16.08,8.44l10.43-5.53,3.03,6.54-11.6,4.62-.41.23-2.42-5.18.98-.67Zm-6.14,12.59l-1.97-1.6c-.24-.19-.36-.49-.32-.8l.44-3.73c0-.06.09-.07.12-.02l1.06,2.49c.08.19.15.39.19.6l.65,2.95c.02.09-.09.16-.16.1Zm.06-3.5v-.06s-.04-.05-.04-.05l-1.58-3.73,6.18-4.22,2.41,5.12-6.79,3.8-.19-.86Zm.96,4.31l-.62-2.81,6.91-3.87.05.1.77,5.91-2.95,1.45-.73-.14-3.44-.65Zm-2.94,5.13l6.54-3.29,1.36-.65,5.36,6.04-12.98,6.38-4.51-6.14,4.22-2.35Zm-13.42,8.07l4.81-3.28,3.83-2.13,4.47,6.07-9.8,3.62-3.26-4.12-.04-.17Zm3.58,7.88l-2.13-2.22c-.1-.11-.18-.24-.21-.39l-.75-3.16c-.03-.12.12-.19.19-.09l2.11,2.67c.06.08.11.18.14.28l.73,2.87c.01.06-.06.09-.1.05Zm1.2,1.25l-.16-.17-1.05-4.11,9.77-3.61.97,8.48-9.53-.6Zm20.59-1.84l-10.42,2.39-1-8.68,12.96-6.37.57,11.79-.48.47-1.63.39Zm.54,1.11l1.4-1.14,3.09-2,8.5,9.39-14.64,8.42-6.5-8.06,8.15-6.61Zm-16.95,15.8l8.34-8.75,6.41,7.95-10.46,6.62-4.19-5.46-.1-.36Zm1.61,5.14c-.13-.13-.23-.29-.28-.46l-.75-2.65,3.19,4.16c.11.14.21.29.29.45l.85,1.59-3.3-3.09Zm13.94,2.39l-8.51,2.7-.7-.66-1.71-3.21,10.33-6.53.77,7.61-.17.1Zm14.47-8.24h-.03s-.02.03-.02.03l-13.64,7.77-.78-7.63,14.6-8.4.48,7.95-.61.28Zm8.45-3.85l-7.22,3.29-.49-8.05,8.1-6.06-.39,10.81Zm-7.3-21.12l15.65-8.97,11.84,9.25-19.39,9.13-8.11-9.41Zm26.71,12.4l-18.77,8.43.39-10.83,19.4-9.13-1.02,11.53Zm7.3-2.15l-6.64,1.89,1.03-11.6,7.54-4.11-1.95,13.76.02.06Zm-9.63,10.78h.01s10.23-9.71,10.23-9.71l1.47-1.66,7.71-8.18,15.47,13.34-.06.32-6.72,4.59-13.89-12.51-.42.47,13.78,12.4-16.51,11.26-11.06-10.32h0Zm-.49.42l11.01,10.28-.03.02-7.09,4.31-10.02-9.47,6.13-5.14Zm-20.61,35.09l-5.6-5.68c-.13-.13-.21-.29-.25-.47l-.35-1.79c-.02-.11.11-.18.19-.1l5.82,5.89c.17.17.27.39.29.63l.11,1.42c0,.12-.13.18-.21.1Zm-6.07-9.01l8.32-8.5,8.02,8.34-9.85,6.72-6.49-6.57Zm16.12,6.67l-9.13,3.15-.21-2.69,9.7-6.62-.35,6.15Zm-7.36-15.62l.33-.33,10.99-11.23,9.97,9.41-13.19,10.57-8.09-8.42Zm19.79,8.23l-.12.08-11.66,6.93.36-6.23,12.95-10.38-1.53,9.6Zm7.43-5.06l-.11.07h-.02s-.02.02-.02.02l-6.56,4.47,1.54-9.67,6.93-4.21-1.76,9.32Zm16.71-9.81l-.17.14-15.82,9.25,1.77-9.38,16.31-11.13-2.1,11.12Zm7.15-5.89l-6.39,5.26,2.08-11,6.29-4.29-1.98,10.03Zm15.28-10.45h-.02s-.04.03-.04.03l-.04.03-13.82,9.42c-.22.15-.51-.04-.46-.3l1.6-8.07c.15-.78.57-1.48,1.18-1.99l12.38-10.3c.2-.16.49,0,.46.25l-1.25,10.93Zm13.49-6.49h-.02s-12.2,5.88-12.2,5.88c-.26.12-.55-.08-.51-.37l1.19-10.42c.06-.52.33-1,.75-1.32l12.06-9.25.14-.1-1.41,15.57Zm12.3-6.75l-.09.05-11.07,6.08c-.2.11-.44-.05-.42-.28l1.28-14.19c.05-.6.37-1.14.87-1.48l12.08-8.25c.2-.13.46.03.42.27l-3.07,17.79Zm8.18,6.18l-6.89-5.54c-.41-.33-.6-.85-.51-1.36l2.91-16.84c.02-.14.22-.17.28-.04l6.66,14.69c.13.28.15.59.08.88l-2.05,8.04c-.05.21-.3.29-.47.16Zm-.19,11.42v-.07s.95-7.56.95-7.56c.08-.61.48-1.13,1.04-1.36l18.01-7.33c.18-.07.36.1.29.28l-5.11,14.98c-.14.41-.52.69-.96.71l-14.25.4.02-.04Zm-.24.69l15.01-.42-2.31,8.12-15.08-.93,2.39-6.77Zm-2.57,7.98c.01-.32.29-.57.61-.55l13.87.86c.31.02.52.32.44.62l-2.99,10.5h0s-12.01.85-12.01.85c-.25.02-.46-.19-.45-.43l.53-11.84Zm-.55,22.45v-9.17c0-.19.14-.34.33-.36l11.68-.83c.12,0,.22.1.19.22l-2.84,12.4c-.08.33-.42.53-.75.44l-8.37-2.38c-.14-.04-.24-.17-.24-.32Zm14.05,12.18l-7.11-1.88c-.47-.12-.88-.42-1.14-.84l-5.05-8.03c-.08-.13.04-.3.19-.25l7.68,2.19c.4.12.75.39.96.75l4.52,7.98-.04.08Zm5.18-11.58l-4.68,10.46c-.06.13-.24.14-.31.01l-4.27-7.53c-.12-.21-.15-.45-.1-.68l2.84-12.14c.03-.12.18-.15.25-.05l6.18,9.05c.17.26.2.58.08.87Zm4.13-11.15l-3.61,9.85s-.08.06-.11.01l-6.48-9.5c-.1-.15-.13-.33-.08-.51l3.22-11.23c.02-.05.09-.06.12-.02l6.91,11c.07.12.09.26.04.39Zm3.13-9.96l-2.64,8.43c-.07.21-.35.25-.46.06l-6.61-10.51-.29-.12,2.05-7.31c.07-.24.37-.3.53-.11l7.24,8.62c.22.26.29.62.19.94Zm4.58-17.07l-4,14.99c-.09.34-.53.44-.76.17l-6.93-8.25c-.3-.35-.39-.83-.24-1.27l5.06-14.85c.09-.28.46-.33.63-.09l6.26,9.18-.04.12Zm9.21-31.73l-8.74,30.11c-.08.28-.46.34-.63.1l-5.71-8.37c-.33-.48-.43-1.08-.29-1.64l6.87-26.82c.11-.44.66-.61,1-.3l7.49,6.81v.12Zm-.12-1.07l-7.95-7.23,5.42-21.17.74,9.85-.05.04-.26.22.04.34,2.06,17.95Zm8.2-26.99l-.05.04-9.34,7.9-.93-12.28,9.14-9.81,1.18,14.16Zm-19.78-33.78l18.42,18.9-9.29,9.96-20.41-22.14,11.28-6.71Zm-.83-.24l-10.88,6.48h-.11s-10.94-6.97-10.94-6.97l7-2.33,14.92,2.82Z"/>
  </g>
  <g>
    <path class="cls-6" d="m355.98,360.39l1.98,2.76c.07.1.23.03.2-.08l-.59-3.2c-.03-.15-.1-.29-.19-.4l-2.01-2.32s-.11,0-.1.05l.59,2.9c.02.1.06.2.12.29Z"/>
    <path class="cls-6" d="m347.3,334.24l2.99,4.32-.62-2.69c-.04-.17-.13-.34-.26-.47l-3.15-3.25.77,1.64c.08.16.17.31.27.46Z"/>
    <path class="cls-6" d="m317.93,310.28l5.53,6.17c.07.09.21.02.19-.1l-.26-1.81c-.03-.17-.1-.34-.23-.48l-5.32-5.94c-.08-.09-.23-.03-.22.09l.04,1.42c0,.24.1.47.26.65Z"/>
    <polygon class="cls-6" points="291.82 397.07 292.61 396.83 292.69 395.28 291.14 396.12 283 400.21 291.82 397.07"/>
    <path class="cls-6" d="m343.06,382.14l.94,2.54c.02.06.1.05.11,0l.62-3.71c.05-.31-.05-.61-.29-.81l-1.88-1.69c-.08-.06-.19,0-.17.1l.51,2.97c.03.21.09.41.16.61Z"/>
    <polygon class="cls-6" points="293.25 396.63 299.02 394.87 299.26 391.81 298.6 392.06 293.34 394.92 293.25 396.63"/>
    <polygon class="cls-6" points="316.15 385.35 299.91 391.56 299.67 394.69 315.44 390.42 316.15 385.35"/>
    <polygon class="cls-6" points="322.56 382.9 316.83 385.09 316.1 390.22 321.73 388.65 322.56 382.9"/>
    <polygon class="cls-6" points="334.42 384.24 334.31 383.96 333.84 378.18 329.15 380.21 329.18 380.25 328.69 380.65 328.54 380.48 325.91 381.62 323.24 382.64 322.4 388.44 334 384.46 334.42 384.24"/>
    <polygon class="cls-6" points="337.46 376.61 334.45 377.92 334.93 383.86 334.98 383.97 342.07 380.43 341.59 377.6 338.19 376.79 337.46 376.61"/>
    <polygon class="cls-6" points="337.38 389.79 343.77 385.87 342.36 382.06 342.34 382.01 342.33 381.95 342.18 381.09 335.22 384.56 337.38 389.79"/>
    <polygon class="cls-6" points="334.25 385.04 322.44 389.1 325.14 395.77 335.82 390.75 336.84 390.12 334.66 384.84 334.25 385.04"/>
    <polygon class="cls-6" points="316.15 390.87 319.35 398.4 324.57 396.04 321.83 389.29 316.15 390.87"/>
    <polygon class="cls-6" points="299.76 395.33 303.59 403.71 318.27 398.89 318.78 398.67 315.53 391.04 299.76 395.33"/>
    <polygon class="cls-6" points="293.3 397.28 295.91 405.91 296.44 405.75 302.98 403.9 299.15 395.5 293.3 397.28"/>
    <polygon class="cls-6" points="292.01 397.67 278.01 402.65 279.27 410.86 295.31 406.09 292.71 397.46 292.01 397.67"/>
    <polygon class="cls-6" points="261.58 412.17 267.98 416.2 278.66 411.07 277.42 402.95 261.58 412.17"/>
    <polygon class="cls-6" points="277.29 402.29 273.81 390.94 252.27 403.13 252.01 403.32 261.02 411.76 277.29 402.29"/>
    <polygon class="cls-6" points="276.67 389.2 293.59 383.28 292.99 379.18 276.67 389.2"/>
    <polygon class="cls-6" points="293.83 383.87 274.39 390.67 277.87 402.04 278.18 401.93 278.18 401.92 290.85 395.56 298.34 391.48 299.29 391.12 293.83 383.87"/>
    <polygon class="cls-6" points="306.55 388.34 301.64 381.17 294.46 383.65 299.91 390.89 306.55 388.34"/>
    <polygon class="cls-6" points="301.46 380.56 301.89 373.89 300.15 374.79 293.58 378.82 294.2 383.07 301.46 380.56"/>
    <polygon class="cls-6" points="318.77 365.28 302.55 373.56 302.11 380.34 322.37 373.05 322.6 372.96 321.77 363.4 318.77 365.28"/>
    <polygon class="cls-6" points="325.67 381.02 328.12 379.96 322.84 373.54 322.6 373.65 302.26 380.95 307.16 388.11 325.67 381.02"/>
    <polygon class="cls-6" points="331.01 370.14 330.57 370.33 323.46 373.29 328.73 379.7 336.13 376.5 331.01 370.14"/>
    <polygon class="cls-6" points="322.38 363.11 323.21 372.7 330.32 369.75 330.79 369.54 330.79 357.77 322.21 363.12 322.38 363.11"/>
    <polygon class="cls-6" points="331.42 357.46 331.43 369.27 344.67 363.53 344.1 354.81 333.57 356.7 331.93 357.02 331.42 357.46"/>
    <polygon class="cls-6" points="336.68 376.17 338.07 375.58 344.77 372.62 349.1 370.47 344.88 364.13 331.61 369.88 336.68 376.17"/>
    <polygon class="cls-6" points="345.5 363.91 349.67 370.19 353.6 368.24 358.56 365.2 358.53 365.03 355.47 360.77 345.5 363.91"/>
    <polygon class="cls-6" points="355.23 360.18 354.38 356.02 354.22 355.85 344.74 354.79 345.29 363.31 355.23 360.18"/>
    <polygon class="cls-6" points="346.45 334.02 344.9 330.74 344.23 330.04 335.6 332.33 335.41 332.42 335.82 340.06 346.45 334.02"/>
    <polygon class="cls-6" points="336 340.69 342.02 348.94 350.77 340.6 350.68 340.23 346.77 334.57 336 340.69"/>
    <polygon class="cls-6" points="335.2 340.4 334.79 332.73 320.8 339.84 320.77 339.85 320.75 339.87 320.12 340.11 320.22 348.08 335.2 340.4"/>
    <polygon class="cls-6" points="328.45 358.48 331.63 356.63 333.09 355.56 341.54 349.35 335.44 340.99 320.41 348.7 328.45 358.48"/>
    <polygon class="cls-6" points="319.6 348.43 319.49 340.36 312.12 343.3 311.21 354.09 319.6 348.43"/>
    <polygon class="cls-6" points="311.36 354.72 318.94 364.42 327.91 358.82 319.85 349.01 311.47 354.67 311.36 354.72"/>
    <polygon class="cls-6" points="310.55 354.36 311.46 343.56 292.31 351.08 290.73 362.56 310.55 354.36"/>
    <polygon class="cls-6" points="290.94 363.15 302.33 372.96 318.39 364.75 310.74 354.97 290.94 363.15"/>
    <polygon class="cls-6" points="290.05 362.84 291.64 351.31 284.92 352.88 284.93 352.94 282.33 366.58 290.05 362.84"/>
    <polygon class="cls-6" points="282.47 367.22 293.4 378.19 299.84 374.23 301.72 373.27 290.3 363.43 282.47 367.22"/>
    <polygon class="cls-6" points="262.54 374.41 274.07 390.06 292.84 378.53 281.82 367.47 262.54 374.41"/>
    <polygon class="cls-6" points="284.02 353.09 262.65 373.69 281.63 366.86 284.27 353.02 284.02 353.09"/>
    <polygon class="cls-6" points="292.16 326.8 294.17 317.22 287.4 321.37 287.38 321.38 287.37 321.39 287.24 321.45 285.04 330.68 292.16 326.8"/>
    <polygon class="cls-6" points="284.28 331.12 286.5 321.84 270.26 330.32 270.08 330.45 267.45 341.45 284.28 331.12"/>
    <polygon class="cls-6" points="266.68 341.92 269.29 331.04 262.66 335.99 260.2 345.91 266.68 341.92"/>
    <path class="cls-6" d="m216.99,375.59l12.46-7.66c.51-.31.86-.84.94-1.43l1.96-14.11c.03-.23-.2-.4-.4-.3l-11.35,5.54-.1.04-3.92,17.62c-.05.24.2.42.4.29Z"/>
    <path class="cls-6" d="m245.58,356.83l12.86-9.7c.64-.47,1.09-1.16,1.27-1.93l1.99-7.99c.06-.25-.22-.46-.44-.32l-14.25,8.75-.04.03-.04.02h-.03s-1.77,10.87-1.77,10.87c-.04.25.24.43.45.28Z"/>
    <path class="cls-6" d="m231.11,366.92l12.5-8.66c.44-.31.72-.77.81-1.29l1.69-10.34c.04-.28-.24-.51-.5-.39l-12.47,5.28h-.02s-2.16,15.5-2.16,15.5l.15-.09Z"/>
    <polygon class="cls-6" points="251.92 402.6 273.53 390.37 261.92 374.62 261.67 374.71 242.07 389.2 251.59 402.85 251.92 402.6"/>
    <polygon class="cls-6" points="251.07 403.23 241.55 389.58 241.36 389.73 224.18 406.62 228.44 420.12 251.07 403.23"/>
    <polygon class="cls-6" points="260.46 412.09 251.49 403.71 228.71 420.72 233.68 428.02 260.46 412.09"/>
    <polygon class="cls-6" points="234.08 428.51 236.42 431.03 235.95 431.46 233.5 428.82 209.77 439.22 235.63 431.98 266.99 416.68 267.31 416.52 260.97 412.53 234.08 428.51"/>
    <polygon class="cls-6" points="233.11 428.3 228.16 421.02 196.13 432.46 206.65 439.9 233.11 428.3"/>
    <polygon class="cls-6" points="196.83 431.55 227.88 420.45 223.67 407.1 196.83 431.55"/>
    <polygon class="cls-6" points="206.06 440.26 195.48 432.78 195.37 432.77 184.18 438.72 198.95 442.25 206.06 440.26"/>
    <polygon class="cls-6" points="175.63 409.17 165.87 418.68 183.37 438.44 194.95 432.27 175.63 409.17"/>
    <path class="cls-6" d="m195.33,443.29l.07-.03.07-.03,2.23-.62-14.32-3.43-24.4,21.15c1.27.54,2.55,1.07,3.83,1.59l32.52-18.63Z"/>
    <path class="cls-6" d="m182.85,438.8l-17.47-19.73-40.17,23.5c10.52,6.65,21.59,12.5,33.13,17.47l24.52-21.24Z"/>
    <path class="cls-6" d="m108.42,417.9l-11.96,3.36c4.15,3.59,8.43,7.04,12.83,10.34l-.87-13.7Z"/>
    <path class="cls-6" d="m165.12,418.49l-.51-14.56-55.55,13.8.91,14.38c4.74,3.54,9.63,6.9,14.63,10.09l40.53-23.71Z"/>
    <polygon class="cls-6" points="175 396.27 165.29 403.71 165.23 403.74 165.73 417.94 175.33 408.58 175 396.27"/>
    <polygon class="cls-6" points="175.94 395.54 175.67 395.74 175.62 395.79 175.89 405.66 182.32 384.77 174.73 377.17 175.93 395.2 175.94 395.54"/>
    <path class="cls-6" d="m182.83,383.13l8.14-26.47c.17-.56.1-1.16-.21-1.66l-5.3-8.63c-.15-.25-.53-.21-.63.07l-10.18,29.66v.11s7.16,7.16,7.16,7.16c.32.33.87.19,1.01-.24Z"/>
    <path class="cls-6" d="m191.8,354.38l5.76-14.59c.17-.43.1-.92-.17-1.28l-6.52-8.57c-.21-.28-.65-.21-.76.13l-4.72,14.78-.04.11,5.82,9.47c.16.25.52.22.64-.05Z"/>
    <path class="cls-6" d="m197.73,337.92c.15.19.46.14.53-.09l2.4-7.2-.28-.13-6.1-10.82c-.1-.18-.39-.17-.46.04l-3.04,8.29c-.12.31-.07.67.14.95l6.81,8.96Z"/>
    <path class="cls-6" d="m200.79,329.93s.1.03.11-.02l3.76-11.06c.05-.17.03-.36-.06-.51l-6.02-9.8s-.09-.04-.11,0l-4.08,9.66c-.05.13-.04.27.03.39l6.37,11.32Z"/>
    <path class="cls-6" d="m204.81,317.48c.06.1.22.09.25-.03l3.43-11.99c.07-.23.04-.47-.06-.68l-3.91-7.73c-.06-.12-.24-.12-.31,0l-5.18,10.23c-.14.28-.12.61.04.87l5.73,9.34Z"/>
    <path class="cls-6" d="m209.79,305.02l7.56,2.55c.15.05.28-.11.2-.24l-4.66-8.27c-.24-.43-.64-.74-1.1-.89l-7.02-2.22-.04.09,4.13,8.19c.19.37.52.66.92.79Z"/>
    <path class="cls-6" d="m208.97,306.09l-3.43,12.24c-.03.12.05.24.17.24l11.71-.26c.18,0,.34-.16.35-.35l.44-9.16c0-.15-.08-.29-.23-.33l-8.25-2.78c-.32-.11-.67.07-.77.4Z"/>
    <path class="cls-6" d="m217.27,318.94l-12.04.27-3.49,10.34c-.1.3.1.6.41.64l13.81,1.53c.31.03.6-.2.64-.51l1.1-11.81c.02-.25-.17-.46-.43-.45Z"/>
    <polygon class="cls-6" points="198.63 338.74 213.65 339.04 216.36 332.39 201.34 330.74 198.63 338.74"/>
    <path class="cls-6" d="m198.14,340.05l-5.83,14.71c-.07.17.1.36.29.29l18.34-6.45c.58-.2,1-.7,1.11-1.31l1.31-7.51v-.06s.03-.05.03-.05l-14.25-.28c-.44,0-.84.25-.99.66Z"/>
    <path class="cls-6" d="m211.76,348.99l-19.31,6.79c-.38.13-.66.44-.78.81l-8.16,26.5c-.05.16.14.28.26.17l25.29-23.26-.13-.33,2.85-9.31-.22-.19.06-.35.14-.82Z"/>
    <path class="cls-6" d="m209.73,359.18c-.09.29-.08.6.03.89l5.94,14.99c.06.14.25.12.29-.02l3.71-16.68c.1-.51-.06-1.04-.45-1.39l-6.62-5.86c-.16-.14-.41-.07-.47.13l-2.43,7.94Z"/>
    <polygon class="cls-6" points="175.94 407.64 175.95 408.07 215.59 376.48 209.31 360.63 182.95 384.86 175.94 407.64"/>
    <polygon class="cls-6" points="306.36 316.53 307.01 310.32 295.03 316.69 294.92 316.76 292.92 326.27 306.36 316.53"/>
    <polygon class="cls-6" points="316.96 307.26 307.68 309.97 307.04 316.1 317.04 309.96 316.96 307.26"/>
    <polygon class="cls-6" points="314.76 325.5 323.47 317.41 317.31 310.54 307.14 316.78 314.76 325.5"/>
    <polygon class="cls-6" points="292.93 327.06 302.43 336.94 313.95 326.25 314.29 325.93 306.61 317.13 292.93 327.06"/>
    <polygon class="cls-6" points="285.09 331.36 285.06 331.39 295.57 342.19 301.94 337.34 292.38 327.41 285.09 331.36"/>
    <polygon class="cls-6" points="267.48 342.19 280.64 355.23 280.19 355.68 266.92 342.53 259.98 346.78 259.9 347.1 274.71 361.17 282.81 353.36 284.36 351.78 295.04 342.59 295.06 342.58 295.06 342.57 284.51 331.73 267.48 342.19"/>
    <path class="cls-6" d="m245.85,357.41c-.41.31-.44.92-.06,1.26l16.03,14.94,12.44-12-15.03-14.27-13.38,10.07Z"/>
    <path class="cls-6" d="m243.59,359.04l-12.14,8.41-.48.3,10.77,20.9,19.15-14.14h0s.48-.47.48-.47l-15.97-14.88c-.5-.46-1.24-.51-1.8-.13Z"/>
    <polygon class="cls-6" points="216.33 376.73 223.99 405.92 240.95 389.24 241.23 389.04 230.43 368.08 216.33 376.73"/>
    <polygon class="cls-6" points="223.47 406.43 215.79 377.14 176.11 408.75 195.48 431.91 223.47 406.43"/>
    <path class="cls-1" d="m198.96,442.91l.63-.18,36.27-10.14,31.41-15.34.67-.32.34-.17,10.79-5.17.31-.1,17.26-5.13,6.62-1.88.31-.09,14.95-4.91,6.58-2.99.29-.13,10.75-5.06,1.23-.76.27-.17,6.53-4.01.36-.22v-.05s.99-5.86.99-5.86l-3.33-2.98-.65-.32-3.19-.77,6.7-2.96,8.89-4.4,5.08-3.12.13-.9-1-5.42-3.16-3.63-.42-.49h0l-9.84-1.1-.64.03-10.59,1.9,8.71-6.4.23-.22,9.07-8.65-.19-.84-1.09-4.69-4.76-4.91v-.03h-.02l-.99-1.01-9.05,2.4-14.86,7.54-.72.29-.31.12-7.63,3.04-.33.13-19.45,7.64-.34.13-.05.03-6.78,1.57.6-.6,9.95-8.55,6.92-5.27.03.03.23-.22,11.75-10.9.56-.51.24-.21h0s8.95-8.31,8.95-8.31l.24-.22h0s.09-.09.09-.09l-.5-3.37-6.37-7.12-.65-.27-9.51,2.77-.34.18-12.37,6.57-.37.24-7.28,4.46-.37.19-16.78,8.75-.39.3-7.03,5.24-.4.31-.12.09-15.3,9.39-.34.15-13.45,5.69-.34.17-12.22,5.96-7.82-6.92-.26-.24.21-1.17.06-.36,1.48-8.49.08-.21.13-.31,2.82-6.91.16-.62,1.22-13.09.51-10.32-.23-.41-5.73-10.15-8.49-2.69-.07.15-.36.71-5.76,11.37-.15.36-4.36,10.32-.14.39-3.6,9.8-.12.37-5.1,16-.14.38-10.63,30.97.03.48,1.24,18.75-.31.24-10.07,7.72-.31.08-55.89,13.88-.31.09-12.5,3.52c.19.17.38.34.58.5l11.96-3.36.87,13.7c.22.17.44.34.67.5l-.91-14.38,55.55-13.8.51,14.56-40.53,23.71c.2.13.41.25.61.38l40.17-23.5,17.47,19.73-24.52,21.24c.22.09.43.19.64.28l24.4-21.15,14.32,3.43-2.23.62-.07.03-.07.03-32.52,18.63c.25.1.49.2.74.3l32.09-18.39,3.32-.92Zm12.81-92.56l-2.85,9.31.13.33-25.29,23.26c-.12.11-.31,0-.26-.17l8.16-26.5c.11-.37.4-.68.78-.81l19.31-6.79-.14.82-.06.35.22.19Zm-2.47,10.28l6.29,15.85-39.64,31.58v-.43s7-22.78,7-22.78l26.35-24.23Zm6.49,16.51l7.67,29.29-27.99,25.49-19.37-23.16,39.68-31.62Zm82.54,14.34l-7.49,4.08-12.66,6.36h0s-.31.12-.31.12l-3.48-11.37,19.44-6.8,5.46,7.26-.95.36Zm.92.33l-.24,3.06-5.76,1.76.09-1.71,5.26-2.87.66-.24Zm-6.57,3.47l-.08,1.55-.78.24-8.82,3.14,8.14-4.09,1.54-.84Zm-68.5,11.34l17.18-16.89.19-.15,9.52,13.65-22.64,16.9-4.26-13.51Zm3.7,13.83l-31.05,11.1,26.84-24.45,4.21,13.35Zm14.19-31.24l19.6-14.49.25-.09,11.61,15.75-21.61,12.23-.33.25-9.52-13.65Zm9.43,14.5l8.96,8.39-26.78,15.92-4.97-7.3,22.79-17.01Zm.51-.38l.26-.19,21.54-12.19,3.48,11.35-16.26,9.47-9.02-8.44Zm41.59-20.04l-16.93,5.92,16.32-10.02.6,4.1Zm0-4.46l6.57-4.03,1.74-.9-.44,6.67-7.26,2.5-.62-4.25Zm.87,4.83l7.19-2.48,4.91,7.17-6.64,2.55-5.45-7.24Zm7.8-2.69l20.34-7.31.24-.1,5.28,6.42-2.45,1.06-18.51,7.08-4.9-7.15Zm-2.35,10.6l16.24-6.21-.71,5.07-15.77,4.27.24-3.13Zm16.92-6.47l5.73-2.19-.83,5.76-5.63,1.57.73-5.14Zm6.41-2.45l2.67-1.02,2.63-1.14.15.17.49-.4-.03-.03,4.68-2.03.47,5.78.11.28-.42.22-11.6,3.98.84-5.8Zm5.49-2.94l-5.28-6.41,7.12-2.96.44-.19,5.12,6.36-7.39,3.2Zm2.06-10.16l-.47.21-7.11,2.95-.84-9.58h-.17s8.58-5.35,8.58-5.35v11.77Zm-8.19,3.42l-.24.1-20.26,7.28.44-6.78,16.22-8.28,3-1.87.84,9.56Zm-20.27,0l-11.39-9.81,19.8-8.18,7.65,9.78-16.06,8.21Zm-.61.31l-1.87.96-6.44,3.96-10.93-10.97,7.82-3.79,11.42,9.84Zm-8.88,5.26l-18.77,11.53-11.53-15.65,19.28-6.94,11.02,11.07Zm-11.21-11.67l-18.97,6.83,21.36-20.61.25-.06-2.64,13.84Zm-19.81,6.75l-16.03-14.94c-.38-.35-.35-.96.06-1.26l13.38-10.07,15.03,14.27-12.44,12Zm-.45.44l-.48.46h0s-19.15,14.14-19.15,14.14l-10.77-20.9.48-.3,12.14-8.41c.56-.38,1.3-.33,1.8.13l15.97,14.88Zm-20.13,14.99l-.28.2-16.96,16.68-7.66-29.19,14.09-8.65,10.8,20.95Zm-13.07,31.98l4.95,7.28-26.47,11.6-10.52-7.44,32.03-11.44Zm38.83-4.34l-31.36,15.3-25.86,7.24,23.74-10.4,2.44,2.64.47-.43-2.34-2.52,26.89-15.98,6.34,3.99-.32.16Zm.99-.48l-6.4-4.03,15.84-9.23,1.25,8.13-10.68,5.13Zm11.29-5.34l-1.26-8.21,14-4.98.7-.21,2.6,8.63-16.04,4.77Zm17.17-5.11l-.53.16-2.61-8.63,5.84-1.78,3.83,8.4-6.53,1.86Zm21.83-6.86l-14.68,4.82-3.84-8.39,15.77-4.28,3.24,7.62-.51.23Zm1.08-.49l-3.2-7.53,5.68-1.58,2.74,6.75-5.21,2.36Zm16.47-7.66l-10.68,5.02-2.7-6.67,11.81-4.05.42-.21,2.17,5.28-1.01.63Zm6.74-12.29l1.88,1.69c.24.2.34.51.29.81l-.62,3.71c0,.06-.1.07-.11,0l-.94-2.54c-.07-.2-.12-.4-.16-.61l-.51-2.97c-.02-.1.1-.16.17-.1Zm-.38,2.62l.15.86v.06s.03.05.03.05l1.4,3.81-6.38,3.92-2.16-5.23,6.96-3.47Zm-.59-3.49l.48,2.83-7.09,3.54-.04-.11-.48-5.94,3.01-1.31.72.17,3.4.81Zm16.97-12.4l-4.95,3.04-3.93,1.94-4.17-6.28,9.97-3.14,3.06,4.26.03.17Zm-3.19-8.04l2.01,2.32c.1.11.17.25.19.4l.59,3.2c.03.11-.13.17-.2.08l-1.98-2.76c-.06-.09-.1-.18-.12-.29l-.59-2.9c-.02-.06.06-.1.1-.05Zm-1.14-1.31l.16.17.85,4.15-9.93,3.14-.56-8.52,9.49,1.06Zm-9.34,8.28l4.22,6.35-4.33,2.15-6.7,2.96-1.4.58-5.07-6.29,13.27-5.76Zm-11.31-7.42l10.53-1.89.58,8.72-13.25,5.74v-11.81s.5-.44.5-.44l1.65-.31Zm17.2-16.11l-8.75,8.34-6.03-8.25,10.77-6.11,3.92,5.66.09.37Zm-1.36-5.21c.13.13.22.3.26.47l.62,2.69-2.99-4.32c-.1-.15-.19-.31-.27-.46l-.77-1.64,3.15,3.25Zm-13.81-3.06l8.63-2.29.67.7,1.55,3.29-10.63,6.03-.41-7.64.18-.09Zm-.16,8.66l6.1,8.36-8.45,6.21-1.46,1.07-3.18,1.85-8.04-9.78,15.03-7.71Zm-14.69-1.12l.03-.02h.03s14-7.12,14-7.12l.41,7.66-14.98,7.68-.1-7.97.63-.24Zm-.9,9.15l8.06,9.81-8.96,5.6-7.59-9.71.11-.04,8.38-5.66Zm-7.73-5.71l7.37-2.94.1,8.07-8.39,5.66.92-10.79Zm-19.81,7.78l19.15-7.52-.91,10.8-19.82,8.2,1.58-11.48Zm-7.39,1.8l6.72-1.57-1.59,11.54-7.73,3.74,2.61-13.65-.02-.06Zm10.14-10.3h-.02s-10.68,9.2-10.68,9.2l-1.54,1.59-8.1,7.8-14.82-14.07.08-.32,6.94-4.26,13.27,13.16.45-.45-13.17-13.04,17.03-10.46,10.55,10.84h0Zm.51-.39l-10.51-10.8.03-.03,7.29-3.96,9.56,9.93-6.37,4.85Zm18.37-15.94l-11.52,10.69-9.5-9.88,13.68-9.92,7.67,8.8-.34.31Zm3.9-18.12l5.32,5.94c.12.14.2.31.23.48l.26,1.81c.02.11-.12.18-.19.1l-5.53-6.17c-.17-.17-.25-.4-.26-.65l-.04-1.42c0-.12.14-.17.22-.09Zm5.62,9.29l-8.71,8.08-7.61-8.72,10.17-6.23,6.16,6.87Zm-15.78-7.44l9.28-2.71.08,2.69-10,6.14.65-6.12Zm-12.77,6.78l.11-.07,11.98-6.37-.65,6.21-13.44,9.74,2-9.51Zm-7.67,4.69l.12-.06h.02s.02-.02.02-.02l6.77-4.15-2.01,9.58-7.12,3.87,2.21-9.23Zm-17.16,9l.17-.13,16.25-8.48-2.22,9.28-16.83,10.33,2.63-11Zm-7.42,5.54l6.63-4.94-2.61,10.88-6.49,3.99,2.47-9.92Zm-15.77,9.71h.03s.04-.03.04-.03l.04-.03,14.25-8.75c.23-.14.51.07.44.32l-1.99,7.99c-.18.77-.64,1.46-1.27,1.93l-12.86,9.7c-.21.15-.5-.03-.45-.28l1.77-10.86Zm-13.78,5.83h.02s12.47-5.28,12.47-5.28c.26-.11.54.11.5.39l-1.69,10.34c-.09.52-.38.99-.81,1.29l-12.5,8.66-.15.09,2.16-15.49Zm-12.62,6.16l.1-.04,11.35-5.54c.2-.1.44.07.4.3l-1.96,14.11c-.08.59-.43,1.12-.94,1.43l-12.46,7.66c-.2.13-.45-.05-.4-.29l3.92-17.62Zm-7.87-6.57l6.62,5.86c.39.35.56.88.45,1.39l-3.71,16.68c-.03.14-.23.16-.29.02l-5.94-14.99c-.11-.29-.12-.6-.03-.89l2.43-7.94c.06-.2.31-.27.47-.13Zm.73-11.4v.06s-1.32,7.51-1.32,7.51c-.1.61-.53,1.11-1.11,1.31l-18.34,6.45c-.18.07-.36-.11-.29-.29l5.83-14.71c.16-.41.56-.67.99-.66l14.25.28-.02.05Zm.28-.68l-15.02-.3,2.7-8,15.02,1.66-2.71,6.64Zm2.95-7.84c-.03.31-.32.55-.64.51l-13.81-1.53c-.31-.03-.51-.34-.41-.64l3.49-10.34,12.04-.27c.25,0,.44.2.43.45l-1.1,11.81Zm1.62-22.4l-.44,9.16c0,.19-.17.34-.35.35l-11.71.26c-.12,0-.21-.11-.17-.24l3.43-12.24c.1-.33.44-.51.77-.4l8.25,2.78c.15.04.24.18.23.33Zm-13.45-12.84l7.02,2.22c.46.15.85.46,1.1.89l4.66,8.27c.08.13-.05.3-.2.24l-7.56-2.55c-.4-.13-.73-.42-.92-.79l-4.13-8.19.04-.09Zm-5.73,11.32l5.18-10.23c.06-.12.24-.12.31,0l3.91,7.73c.1.21.13.45.06.68l-3.43,11.99c-.03.12-.19.14-.25.03l-5.73-9.34c-.17-.26-.18-.59-.04-.87Zm-4.66,10.94l4.08-9.66c.03-.05.09-.05.11,0l6.02,9.8c.1.15.11.34.06.51l-3.76,11.06c-.02.05-.09.06-.11.02l-6.37-11.32c-.07-.12-.08-.26-.03-.39Zm-3.6,9.8l3.04-8.29c.07-.21.36-.23.46-.04l6.1,10.82.28.13-2.4,7.2c-.07.23-.38.28-.53.09l-6.81-8.96c-.21-.28-.26-.64-.14-.95Zm-5.4,16.83l4.72-14.78c.1-.34.55-.41.76-.13l6.52,8.57c.28.37.35.85.17,1.28l-5.76,14.59c-.11.27-.48.31-.64.05l-5.82-9.47.04-.11Zm-10.73,31.25l10.18-29.66c.1-.28.48-.32.63-.07l5.3,8.63c.31.5.38,1.1.21,1.66l-8.14,26.47c-.14.44-.69.58-1.01.24l-7.15-7.16v-.11Zm.07,1.07l7.59,7.6-6.43,20.88-.27-9.87.05-.04.27-.2-.02-.34-1.19-18.03Zm-9.5,26.57l.05-.03,9.71-7.44.33,12.31-9.6,9.36-.5-14.2Zm18.14,34.7l-17.5-19.76,9.76-9.5,19.32,23.1-11.58,6.17Zm.81.28l11.19-5.95h.1s10.59,7.49,10.59,7.49l-7.11,1.99-14.77-3.53Z"/>
  </g>
  <g>
    <g>
      <polygon class="cls-3" points="236.85 194.69 236.83 194.73 235.63 197.31 235.46 197.68 198.16 278 203.03 221.79 234.87 147.47 236.85 194.69"/>
      <polygon class="cls-5" points="318.13 178.08 338.68 229.21 236.85 194.69 235.24 146.05 318.13 178.08"/>
      <path class="cls-7" d="m339.62,228.78h0s-.01-.07-.01-.1h-.01s-20.17-51.09-20.17-51.09h-.01s-.01-.05-.03-.07c0-.01-.01-.03-.03-.04-.01-.03-.03-.04-.04-.05,0-.01-.01-.03-.03-.03l-.04-.04s-.03-.03-.05-.03h0s-.04-.03-.05-.03c0-.01-.01-.01-.03-.03l-83.87-31.24s-.08-.03-.12-.03h-.03s-.14-.01-.14-.01c-.01,0-.03.01-.04.01-.03,0-.04,0-.05.01h-.03c-.15.05-.27.16-.33.33-.01.01-.01.03-.01.04l-31.89,75.16s-.01.03-.01.04h0s-.01.03-.01.03c0,.03-.01.05-.01.1l-5.08,57.14v.15s.01.03.01.04c.01.03.01.04.03.07v.03s.01.01.01.01c.01.01.03.04.04.05,0,.01.01.03.01.04.03.01.04.04.07.05,0,.01.01.01.01.03.03.01.07.04.1.05h.01s.05.04.1.04l92.72,24.85s.03.01.04.01h.03s.07.01.1.01.04-.01.07-.01c.04,0,.07-.01.1-.03h.01s.05-.03.08-.04h.01s.05-.05.08-.07h0s.04-.05.05-.08c0,0,.01,0,.01-.01h.01s48.36-74.91,48.36-74.91c.01-.03.03-.04.03-.07.01,0,.01-.01.01-.01.01-.03.01-.05.03-.1.01-.04.01-.07.01-.1h0s0-.07-.01-.11Zm-20.8-49.72l17.17,43.46.14.36,2.01,5.1-39.58-13.44,20.08-35.15.18-.32Zm-119.99,96.71l4.74-53.28,17.08,5.15-21.82,48.13Zm36.62-78.09l.16-.37,1.18-2.59h.03s60.12,20.41,60.12,20.41l-16.76,29.35-58.01-17.52,13.28-29.28Zm62.05,16.5l-60.46-20.52-1.47-46.31,82.54,30.74-20.62,36.09Zm-61.56-20.24l-14.84,32.7-17.28-5.22,31.03-73.95,1.08,46.47Zm-37.18,84.63l22.95-50.6,58.25,17.58,10.07,57.47-91.27-24.45Zm92.26,23.74l-10-57.09,16.97-29.72,40.25,13.66-47.22,73.15Z"/>
    </g>
    <polygon class="cls-4" points="300.08 216.2 295.68 214.7 236.83 194.73 235.63 197.31 235.46 197.68 222.19 226.95 221.72 227.97 198.77 278.56 289.39 302.84 290.04 303.02 291.03 302.31 338.25 229.16 300.08 216.2"/>
  </g>
  <path class="cls-1" d="m230.23,220.86c1.71-6.83,4.73-13.21,8.07-19.36.42-.77,1.31-1.11,2.12-.87,4.43,1.29,8.84,2.68,13.21,4.2,4.38,1.54,8.73,3.13,12.98,5.03-9.19-1.2-18.23-3.3-27.18-5.64,0,0,2.15-.93,2.15-.93-3.16,6.22-6.7,12.31-11.33,17.58h0Z"/>
  <path class="cls-1" d="m295.02,283.92c-.9,4.82-2.95,9.3-5.29,13.56-.37.66-1.14.96-1.84.75-3.06-.9-6.09-1.89-9.1-2.99-3-1.12-5.99-2.28-8.9-3.71,6.42.6,12.66,1.97,18.87,3.57,0,0-1.87.81-1.87.81,2.17-4.32,4.69-8.52,8.13-11.99h0Z"/>
</svg>