<?xml version="1.0" encoding="UTF-8"?>
<svg id="Layer_1" data-name="Layer 1" xmlns="http://www.w3.org/2000/svg" viewBox="0 0 505 480">
  <defs>
    <style>
      .cls-1 {
        fill: #005468;
      }

      .cls-2 {
        fill: #eeeff2;
      }

      .cls-3 {
        fill: #00f9ff;
        opacity: .7;
      }

      .cls-4 {
        fill: #0af;
      }

      .cls-5 {
        fill: none;
        stroke: #0097c6;
        stroke-miterlimit: 10;
      }
    </style>
  </defs>
  <circle class="cls-2" cx="252" cy="240" r="239.5"/>
  <g>
    <ellipse class="cls-5" cx="193.74" cy="428.13" rx="32.3" ry="65.59" transform="translate(-274.12 472.24) rotate(-71.04)"/>
    <path class="cls-4" d="m362.15,92.15l-2.17,5.61h-.03c-28.43-19.16-62-24.98-68.49-25.95l2.11-5.45c4.69.66,39.33,6.15,68.58,25.79Z"/>
    <path class="cls-4" d="m357.23,104.91l-2.37,6.15c-29.68-19.76-64.69-25.11-68.68-25.67l2.4-6.16c3.06.42,38.65,5.63,68.66,25.68Z"/>
    <path class="cls-4" d="m351.49,119.77l-1.96,5.1c-31.68-19.42-64.55-24.91-67.9-25.43l-.31-1.57,1.51-3.87c4.07.57,39.11,5.96,68.66,25.77Z"/>
    <path class="cls-1" d="m336.27,29.96c-8.39-3.5-15.57-3.77-21.35-.81-8.51,4.36-10.93,14.38-10.93,14.41l-6.81,16.02-2.48,1.68-4.05,10.43-.29.75-9.81,25.24-.04.11.38,1.95-97.66,253.23,5.94,86.64,62.16-62.19.06-.06,96.77-249.96,2.01-1.99,14.36-37.26.2-3.3,7.64-22.25c4.75-17.07-12.44-22.8-12.62-22.85l-23.47-9.8Zm-54.71,70.27c2.87.45,25.44,4.24,50.86,16.3l-.23-.09-96.07,248.83c-19.09,3.6-31.52-10.65-32.91-12.35l96.98-248.2-.73-.29-97.02,248.29c-1.07.65-10.72,6.14-17.9-.95l97.02-251.54Zm-45.96,265.92l-28.73,44.78c-2.78-1.57-6.7-3.2-12.01-4.3l8.15-52.72c2.66,3.04,14.68,15.27,32.58,12.25Zm-51.61-12.96l.25-.62c6.78,6.41,15.47,2.53,18.01,1.17l-8.16,52.73c-1.97-.38-4.12-.68-6.48-.89l-3.62-52.39Zm3.67,53.18c2.3.21,4.39.51,6.31.88l-4.32,27.95-1.99-28.83Zm7.08,1.04c5.15,1.08,8.97,2.68,11.69,4.21l-16.25,25.34,4.57-29.55Zm-2.94,28.46l15.3-23.85c2.79,1.66,4.28,3.16,4.8,3.74l-20.1,20.11Zm20.66-20.67c-.59-.67-2.11-2.21-4.91-3.89l28.67-44.68c.63,2.55,3.17,9.38,12.42,12.37l-36.17,36.19ZM347.48,126.97l-96.77,249.96-1.46,1.46c-10.71-3.28-12.3-11.78-12.44-12.72l96.09-248.9c5.3,2.53,10.72,5.42,16.1,8.71l-1.52,1.5Zm2.05-2.1c-31.68-19.42-64.55-24.91-67.9-25.43l-.31-1.57,1.51-3.87c4.07.57,39.11,5.96,68.66,25.77l-1.96,5.1Zm2.26-5.85c-29.25-19.56-63.77-25.08-68.67-25.78l2.76-7.11c2.83.38,38.56,5.55,68.69,25.67l-2.78,7.22Zm3.07-7.97c-29.68-19.76-64.69-25.11-68.68-25.67l2.4-6.16c3.06.42,38.65,5.63,68.66,25.68l-2.37,6.15Zm2.67-6.9c-29.6-19.72-64.51-25.1-68.66-25.68l2.29-5.91c5.95.89,39.94,7,68.47,26.12l-2.11,5.47Zm2.46-6.39h-.03c-28.43-19.16-62-24.98-68.49-25.95l2.11-5.45c4.69.66,39.33,6.15,68.58,25.79l-2.17,5.61Zm3.79-9.83l-1.33,3.47c-29-19.4-63.19-25.01-68.58-25.79l1.49-3.83,2.23-1.51c39.88,8.77,66.04,25.53,66.3,25.69h0s-.12,1.97-.12,1.97Zm7.84-25.56l-7.65,22.28-.02.41c-3.32-2.06-28.61-17.25-65.9-25.51l6.69-15.76c.02-.09,2.35-9.76,10.54-13.95,5.57-2.85,12.53-2.56,20.69.84l23.5,9.81.08.02c.9.3,10.74,3.76,12.58,13.17.48,2.47.41,5.35-.51,8.69Z"/>
    <path class="cls-3" d="m211.9,415.76l-20.1,20.11,15.3-23.85c2.79,1.66,4.28,3.16,4.8,3.74Z"/>
    <path class="cls-3" d="m206.43,411.62l-16.25,25.34,4.57-29.55c5.15,1.08,8.97,2.68,11.69,4.21Z"/>
    <path class="cls-3" d="m193.97,407.25l-4.32,27.95-1.99-28.83c2.3.21,4.39.51,6.31.88Z"/>
  </g>
  <path class="cls-4" d="m248.63,379.01l-36.17,36.19c-.59-.67-2.11-2.21-4.91-3.89l28.67-44.68c.63,2.55,3.17,9.38,12.42,12.37Z"/>
  <path class="cls-4" d="m235.6,366.14l-28.73,44.78c-2.78-1.57-6.7-3.2-12.01-4.3l8.15-52.72c2.66,3.04,14.68,15.27,32.58,12.25Z"/>
  <path class="cls-4" d="m202.25,353.73l-8.16,52.73c-1.97-.38-4.12-.68-6.48-.89l-3.62-52.39.25-.62c6.78,6.41,15.47,2.53,18.01,1.17Z"/>
</svg>