<?xml version="1.0" encoding="utf-8"?>
<!-- Generator: Adobe Illustrator 24.3.0, SVG Export Plug-In . SVG Version: 6.00 Build 0)  -->
<svg version="1.1" id="Capa_1" xmlns="http://www.w3.org/2000/svg" xmlns:xlink="http://www.w3.org/1999/xlink" x="0px" y="0px"
	 viewBox="0 0 54 56" style="enable-background:new 0 0 54 56;" xml:space="preserve">
<style type="text/css">
	.st0{fill:#0097C6;}
	.st1{opacity:0.2;}
	.st2{fill:#FFFFFF;}
	.st3{fill:#00AAFF;}
	.st4{opacity:0.5;fill:#ADADAD;}
	.st5{fill:#EC8B56;}
	.st6{fill:#00AAFF;stroke:#000000;stroke-width:0.2643;stroke-miterlimit:10;}
	.st7{fill:#00FFFF;stroke:#000000;stroke-width:0.2643;stroke-miterlimit:10;}
	.st8{fill:#FFB680;}
	.st9{fill:#FFD6BB;}
	.st10{fill:none;stroke:#FFFFFF;stroke-width:1.0491;stroke-miterlimit:10;}
</style>
<g>
	<path class="st5" d="M26.05,11.74c0.05-0.14,0.55-0.15,0.55,0c-0.02,0.62-0.1,1.49-0.08,2.38c0.02,0.8,0.38,2.79,0.29,3.37
		c-0.08,0.58,0.02,1.92,0.02,1.92s-1.21,0.58-1.49-1.75C25.11,15.74,25.57,12.94,26.05,11.74z"/>
	<path class="st5" d="M26.99,11.46c0,0,1.47,1.57,1.72,1.94c0.25,0.38,0,0.93,0,2.19c0,1.26,0,2.13,0.38,2.67
		c0.38,0.53,0.88,0.62,0.88,0.62S31.11,15,31,13.95C30.9,12.9,26.99,11.46,26.99,11.46z"/>
	<path class="st6" d="M27.72,14.26V36c0,0.11,0.06,0.2,0.15,0.25l17.67,9.22c0.19,0.1,0.41-0.04,0.41-0.25V23.66
		c0-0.11-0.06-0.2-0.16-0.25l-18.06-9.16C27.74,14.24,27.72,14.25,27.72,14.26z"/>
	<path class="st6" d="M27.69,14.25L8.13,23.9c-0.14,0.07-0.23,0.21-0.23,0.37v20.76c0,0.3,0.32,0.5,0.59,0.37l19-9.12
		c0.14-0.07,0.23-0.21,0.23-0.37V14.28C27.72,14.26,27.7,14.25,27.69,14.25z"/>
	<path class="st7" d="M27.63,35.93L8.1,45.4c-0.14,0.07-0.14,0.26-0.01,0.33l18.62,10.09c0.06,0.03,0.12,0.03,0.18,0l18.89-10.09
		c0.13-0.07,0.13-0.26,0-0.33L27.8,35.94C27.75,35.91,27.69,35.91,27.63,35.93z"/>
	<g>
		<path d="M26.93,55.94L26.93,55.94L26.93,55.94l-0.03-0.02L8.06,45.72c-0.06-0.03-0.1-0.1-0.1-0.16c0-0.07,0.04-0.13,0.1-0.16
			l4.47-2.21l-0.03-0.02l1.97-0.94l13.24-6.53l0.03,0.02l18.35,9.84l-0.11,0.06L26.93,55.94z M21.78,52.96l5.15,2.83l4.09-2.3
			l-4.95-2.76L21.78,52.96z M26.21,50.66l5.03,2.8l4.82-2.61l-4.86-2.79L26.21,50.66z M17.81,50.85l3.8,2.06l0.01-0.01l4.32-2.25
			l-3.86-2.15L17.81,50.85z M13.06,48.2l4.62,2.57l4.26-2.34l-4.53-2.52L13.06,48.2z M31.34,47.99l4.85,2.78l4.62-2.57l-4.76-2.66
			L31.34,47.99z M22.21,48.43l3.86,2.15l4.99-2.6l-3.93-2.25L22.21,48.43z M17.55,45.83l4.53,2.52l4.92-2.7l-4.36-2.5L17.55,45.83z
			 M36.18,45.47l4.83,2.7l4.81-2.61l-4.84-2.59l-0.02,0.01L36.18,45.47z M12.69,43.27l-4.56,2.25C8.1,45.53,8.1,45.55,8.1,45.56
			c0,0.01,0,0.03,0.03,0.04l4.72,2.56l0.04-0.02l4.39-2.31L12.69,43.27z M27.27,45.65l3.93,2.26l4.7-2.45l-4.11-2.3L27.27,45.65z
			 M12.83,43.2l4.59,2.56l5.08-2.68l-4.29-2.46l-3.67,1.75L12.83,43.2z M22.77,43.08l4.36,2.5l4.53-2.49l-4.33-2.42L22.77,43.08z
			 M31.93,43.09l4.11,2.3l4.75-2.47l-4.35-2.3L31.93,43.09z M27.47,40.6l4.33,2.42l4.59-2.52l-4.32-2.32L27.47,40.6z M18.29,40.51
			L22.64,43l4.56-2.4l-4.26-2.38L18.29,40.51z M23.11,38.16l4.22,2.36l4.48-2.37l-4.09-2.3L23.11,38.16z"/>
	</g>
	<line class="st6" x1="27.72" y1="14.37" x2="27.72" y2="36"/>
	<g class="st1">
		<ellipse cx="27.33" cy="48.47" rx="7.93" ry="2.25"/>
	</g>
	<g>
		<g>
			<path class="st5" d="M30.9,8.58c0,0,1.94,2.64,2.25,3.17c0.31,0.53,0.02,2.48,0.02,3.24c0,0.76-0.61,4.68-0.61,4.68
				s-1.66,0-1.66-1.41C30.9,16.84,30.9,8.58,30.9,8.58z"/>
			<path class="st8" d="M32.67,19.66c-0.37,0.07-0.56-0.13-0.65-0.6c-0.09-0.46-0.01-1.01-0.01-1.01s0.43-0.08,0.82,0
				C32.78,18.58,32.69,19.47,32.67,19.66z"/>
			<path class="st8" d="M20.47,7.51c0.62,1,0.04,3.2,1.54,4.63c1.5,1.43,1.75,2.62,1.82,3.57c0.04,0.56,0.5,1.99,0.75,3.53
				c0.25,1.54,1.94,1.27,1.92-0.36c-0.02-1.76-0.67-3.46-0.61-5.21c0.03-0.86,0.56-2.07,1.36-1.72c0.8,0.35,2.62,1.26,2.97,2.32
				c0.35,1.06-0.22,3.03-0.26,4.26c-0.05,1.39,1.32,1.58,1.32,1.58s0.91-2.82,1.11-4.02c0.2-1.2,0.44-3.6-0.41-5.07
				c-0.49-0.86-0.79-2.84-1.44-3.38c-1.92-1.59-6.57-4.51-8.08-5.7c-1.5-1.19-2.07-1.63-3.94-1.63c-1.56,0-5.97-0.25-5.97-0.25v5.89
				C12.54,5.95,19.3,5.64,20.47,7.51z"/>
			<path class="st9" d="M31.27,20.11c-0.41-0.01-0.62-0.33-0.62-0.85c0-0.52,0.26-1.01,0.26-1.01s0.47,0,0.87,0.17
				C31.62,18.99,31.33,19.92,31.27,20.11z"/>
			<path class="st9" d="M25.2,19.96c0.37,0.05,0.85-0.29,0.85-0.92c0-0.63-0.21-0.78-0.21-0.78l-1.22,0.2
				C24.63,18.46,24.78,19.9,25.2,19.96z"/>
		</g>
	</g>
	<g>
		<circle class="st4" cx="27.26" cy="33.33" r="8.39"/>
		<circle class="st10" cx="27.39" cy="33.46" r="8.39"/>
		<path class="st2" d="M21.03,32.14c-0.05,0.16-0.27,0.12-0.27-0.05c0.01-0.46,0.09-0.92,0.24-1.36c0.24-0.72,0.66-1.39,1.2-1.93
			c0.54-0.54,1.21-0.96,1.93-1.2c0.4-0.14,0.82-0.22,1.24-0.24c0.18-0.01,0.22,0.25,0.05,0.3c-0.38,0.12-0.74,0.26-1.09,0.43
			c-0.61,0.31-1.17,0.71-1.65,1.19c-0.48,0.48-0.88,1.03-1.19,1.65C21.31,31.32,21.16,31.72,21.03,32.14z"/>
	</g>
</g>
</svg>
