<?xml version="1.0" encoding="UTF-8"?>
<svg id="Layer_1" data-name="Layer 1" xmlns="http://www.w3.org/2000/svg" viewBox="0 0 503 480">
  <defs>
    <style>
      .cls-1 {
        opacity: .7;
      }

      .cls-2 {
        fill: #eeeff2;
      }

      .cls-3 {
        stroke-width: .5px;
      }

      .cls-3, .cls-4, .cls-5 {
        fill: none;
        stroke: #0af;
        stroke-miterlimit: 10;
      }

      .cls-4 {
        stroke-width: .75px;
      }
    </style>
  </defs>
  <circle class="cls-2" cx="253" cy="240" r="239.5"/>
  <g>
    <path class="cls-5" d="m170.1,62.45v2.44h.01c0,.14.04.27.14.38l37.52,39.96c.32.34,1.01.39,1.54.12l109.13-56.33c.34-.17.51-.44.53-.7h.02s0-2.38,0-2.38"/>
    <path class="cls-5" d="m207.78,102.78l-37.52-39.96c-.32-.34-.14-.84.39-1.11L279.78,5.38c.53-.27,1.23-.22,1.54.12l37.52,39.96c.32.34.14.84-.39,1.11l-109.13,56.33c-.53.27-1.23.22-1.54-.12Z"/>
    <polygon class="cls-5" points="182.46 58.77 279.78 7.82 314.79 44.94 216.96 95.34 182.46 58.77"/>
    <path class="cls-5" d="m197.82,78.68c.31,1.61-.86,3.19-2.63,3.53-1.76.34-3.45-.68-3.76-2.29-.31-1.61.86-3.19,2.63-3.53,1.76-.34,3.45.68,3.76,2.29Z"/>
  </g>
  <g>
    <path class="cls-4" d="m289.46,471.27c-1.06,1.04-2.81.82-3.88-.49l-50.35-61.65c-1.07-1.31-1.08-3.24-.02-4.29l76.17-74.81c.8-.78,2.18-.7,3.18-.14"/>
    <g class="cls-1">
      <path class="cls-4" d="m238.38,404.71l76.17-74.81c1.06-1.04,2.81-.82,3.88.49l50.35,61.65c1.07,1.31,1.08,3.24.02,4.29l-76.17,74.81c-1.06,1.04-2.81.82-3.88-.49l-50.35-61.65c-1.07-1.31-1.08-3.24-.02-4.29Z"/>
      <polygon class="cls-3" points="244.16 406.04 316.85 334.65 364.75 393.3 292.06 464.69 244.16 406.04"/>
      <path class="cls-3" d="m341.43,363.35c-.41-.5-.41-1.22,0-1.62.4-.4,1.06-.31,1.47.18.41.5.41,1.22,0,1.62-.4.4-1.06.31-1.47-.18Z"/>
      <path class="cls-3" d="m264.54,438.87c-.7-.85-.7-2.09-.01-2.77s1.81-.54,2.51.32.7,2.09.01,2.77-1.81.54-2.51-.32Z"/>
    </g>
  </g>
  <g>
    <g>
      <path class="cls-5" d="m115.22,352.52l8.16,7c.6.64,1.26,1.2,1.95,1.67l.07.06s0,0,.01,0c2.25,1.51,4.91,2.12,7.7,1.52l264.01-56.7c7.04-1.51,12.28-10.12,11.64-19.12l-13.46-190.07c-.33-4.62-2.15-8.47-4.78-10.93h0s-9.15-7.94-9.15-7.94"/>
      <path class="cls-5" d="m388.66,298.74l-264.01,56.7c-7.04,1.51-13.32-4.62-13.96-13.62l-13.46-190.07c-.64-9,4.6-17.61,11.64-19.12l264.01-56.7c7.04-1.51,13.32,4.62,13.96,13.62l13.46,190.07c.64,9-4.6,17.61-11.64,19.12Z"/>
      <path class="cls-5" d="m399.06,261.99l-12.21-172.44c-.64-9-6.92-15.14-13.96-13.62l-264.01,56.7c-7.04,1.51-12.28,10.12-11.64,19.12l12.17,171.84h0l289.66-61.59Z"/>
    </g>
    <g>
      <path class="cls-3" d="m194.43,343.68c.04.53-.27,1.03-.68,1.12-.41.09-.78-.27-.82-.8-.04-.53.27-1.03.68-1.12.42-.09.78.27.82.8Z"/>
      <path class="cls-3" d="m197.81,342.96c.04.53-.27,1.03-.68,1.12-.42.09-.78-.27-.82-.8-.04-.53.27-1.03.68-1.12.42-.09.78.27.82.8Z"/>
      <path class="cls-3" d="m201.18,342.23c.04.53-.27,1.03-.68,1.12-.41.09-.78-.27-.82-.8-.04-.53.27-1.03.68-1.12.41-.09.78.27.82.8Z"/>
      <path class="cls-3" d="m204.56,341.51c.04.53-.27,1.03-.68,1.12-.41.09-.78-.27-.82-.8s.27-1.03.68-1.12c.41-.09.78.27.82.8Z"/>
      <path class="cls-3" d="m207.94,340.78c.04.53-.27,1.03-.68,1.12-.42.09-.78-.27-.82-.8-.04-.53.27-1.03.68-1.12.42-.09.78.27.82.8Z"/>
      <path class="cls-3" d="m211.31,340.06c.04.53-.27,1.03-.68,1.12s-.78-.27-.82-.8c-.04-.53.27-1.03.68-1.12.41-.09.78.27.82.8Z"/>
      <path class="cls-3" d="m214.69,339.33c.04.53-.27,1.03-.68,1.12-.41.09-.78-.27-.82-.8s.27-1.03.68-1.12c.41-.09.78.27.82.8Z"/>
      <path class="cls-3" d="m194.65,346.85c.04.53-.27,1.03-.68,1.12-.41.09-.78-.27-.82-.8-.04-.53.27-1.03.68-1.12.41-.09.78.27.82.8Z"/>
      <path class="cls-3" d="m198.03,346.12c.04.53-.27,1.03-.68,1.12-.41.09-.78-.27-.82-.8-.04-.53.27-1.03.68-1.12.42-.09.78.27.82.8Z"/>
      <path class="cls-3" d="m201.41,345.4c.04.53-.27,1.03-.68,1.12-.42.09-.78-.27-.82-.8-.04-.53.27-1.03.68-1.12.42-.09.78.27.82.8Z"/>
      <path class="cls-3" d="m204.78,344.67c.04.53-.27,1.03-.68,1.12-.41.09-.78-.27-.82-.8-.04-.53.27-1.03.68-1.12.41-.09.78.27.82.8Z"/>
      <path class="cls-3" d="m208.16,343.95c.04.53-.27,1.03-.68,1.12-.41.09-.78-.27-.82-.8-.04-.53.27-1.03.68-1.12.41-.09.78.27.82.8Z"/>
      <path class="cls-3" d="m211.54,343.22c.04.53-.27,1.03-.68,1.12-.42.09-.78-.27-.82-.8-.04-.53.27-1.03.68-1.12.42-.09.78.27.82.8Z"/>
      <path class="cls-3" d="m214.91,342.5c.04.53-.27,1.03-.68,1.12-.42.09-.78-.27-.82-.8-.04-.53.27-1.03.68-1.12.41-.09.78.27.82.8Z"/>
    </g>
    <rect class="cls-3" x="393.07" y="103.89" width="2.43" height="84.33" rx=".5" ry=".5" transform="translate(-9.08 27.37) rotate(-3.93)"/>
    <g>
      <path class="cls-3" d="m275.76,325.98c.04.53-.27,1.03-.68,1.12-.42.09-.78-.27-.82-.8-.04-.53.27-1.03.68-1.12.42-.09.78.27.82.8Z"/>
      <path class="cls-3" d="m279.14,325.25c.04.53-.27,1.03-.68,1.12-.42.09-.78-.27-.82-.8-.04-.53.27-1.03.68-1.12.42-.09.78.27.82.8Z"/>
      <path class="cls-3" d="m282.51,324.53c.04.53-.27,1.03-.68,1.12-.41.09-.78-.27-.82-.8-.04-.53.27-1.03.68-1.12.41-.09.78.27.82.8Z"/>
      <path class="cls-3" d="m285.89,323.8c.04.53-.27,1.03-.68,1.12-.42.09-.78-.27-.82-.8-.04-.53.27-1.03.68-1.12.42-.09.78.27.82.8Z"/>
      <path class="cls-3" d="m289.27,323.07c.04.53-.27,1.03-.68,1.12-.42.09-.78-.27-.82-.8-.04-.53.27-1.03.68-1.12.42-.09.78.27.82.8Z"/>
      <path class="cls-3" d="m292.64,322.35c.04.53-.27,1.03-.68,1.12-.41.09-.78-.27-.82-.8-.04-.53.27-1.03.68-1.12.41-.09.78.27.82.8Z"/>
      <path class="cls-3" d="m296.02,321.62c.04.53-.27,1.03-.68,1.12-.41.09-.78-.27-.82-.8s.27-1.03.68-1.12c.41-.09.78.27.82.8Z"/>
      <path class="cls-3" d="m275.98,329.14c.04.53-.27,1.03-.68,1.12-.41.09-.78-.27-.82-.8-.04-.53.27-1.03.68-1.12.41-.09.78.27.82.8Z"/>
      <path class="cls-3" d="m279.36,328.42c.04.53-.27,1.03-.68,1.12-.42.09-.78-.27-.82-.8-.04-.53.27-1.03.68-1.12.42-.09.78.27.82.8Z"/>
      <path class="cls-3" d="m282.74,327.69c.04.53-.27,1.03-.68,1.12-.42.09-.78-.27-.82-.8-.04-.53.27-1.03.68-1.12.42-.09.78.27.82.8Z"/>
      <path class="cls-3" d="m286.12,326.97c.04.53-.27,1.03-.68,1.12-.41.09-.78-.27-.82-.8-.04-.53.27-1.03.68-1.12.41-.09.78.27.82.8Z"/>
      <path class="cls-3" d="m289.49,326.24c.04.53-.27,1.03-.68,1.12-.41.09-.78-.27-.82-.8-.04-.53.27-1.03.68-1.12.42-.09.78.27.82.8Z"/>
      <path class="cls-3" d="m292.87,325.52c.04.53-.27,1.03-.68,1.12-.42.09-.78-.27-.82-.8-.04-.53.27-1.03.68-1.12.42-.09.78.27.82.8Z"/>
      <path class="cls-3" d="m296.25,324.79c.04.53-.27,1.03-.68,1.12-.41.09-.78-.27-.82-.8-.04-.53.27-1.03.68-1.12.41-.09.78.27.82.8Z"/>
    </g>
    <polygon class="cls-5" points="384.48 252.24 120.65 308.89 109.1 146.65 372.94 89.99 384.48 252.24"/>
  </g>
</svg>