<?xml version="1.0" encoding="utf-8"?>
<!-- Generator: Adobe Illustrator 24.3.0, SVG Export Plug-In . SVG Version: 6.00 Build 0)  -->
<svg version="1.1" id="Capa_1" xmlns="http://www.w3.org/2000/svg" xmlns:xlink="http://www.w3.org/1999/xlink" x="0px" y="0px"
	 viewBox="0 0 54 56" style="enable-background:new 0 0 54 56;" xml:space="preserve">
<style type="text/css">
	.st0{fill:#0097C6;}
	.st1{opacity:0.2;}
	.st2{fill:#FFFFFF;}
	.st3{fill:#00AAFF;}
	.st4{opacity:0.5;fill:#ADADAD;}
	.st5{fill:#EC8B56;}
	.st6{fill:#00AAFF;stroke:#000000;stroke-width:0.2643;stroke-miterlimit:10;}
	.st7{fill:#00FFFF;stroke:#000000;stroke-width:0.2643;stroke-miterlimit:10;}
	.st8{fill:#FFB680;}
	.st9{fill:#FFD6BB;}
	.st10{fill:none;stroke:#FFFFFF;stroke-width:1.0491;stroke-miterlimit:10;}
</style>
<g>
	<path class="st0" d="M53.07,21.09c0.12-2.97-0.12-8.13-13.22-8.35v13.59v5.87h13.38L53.07,21.09z"/>
	<path class="st0" d="M1.17,21.09c-0.11-2.97,0.11-8.13,12.9-8.35v13.59v5.87H1.01L1.17,21.09z"/>
	<g>
		<path class="st2" d="M40.09,12.88c12.9,0.27,12.9,5.08,12.9,8.26l-0.32,20.09c-0.01,1.08-0.41,2.11-1.13,2.89
			c-2.03,2.19-5.82,4.56-25.08,4.83c-0.5,0.01-0.99,0.01-1.47,0.01c-16.05,0-21.46-3.88-23.05-5.55c-0.45-0.47-0.7-1.1-0.7-1.75
			V21.52c0-0.15,0-0.31,0-0.47c-0.04-2.96-0.11-7.9,12.58-8.17v13.79v0.2l0.2,0.03c3.32,0.55,7.23,0.82,11.63,0.82
			c5.42,0,10.21-0.43,14.25-1.27l0.19-0.04v-0.2V12.88 M39.85,12.63v13.59c-3.65,0.76-8.3,1.27-14.2,1.27
			c-4.7,0-8.51-0.31-11.59-0.82V12.63C0.18,12.86,1.01,18.62,1.01,21.52v20.13c0,0.71,0.27,1.4,0.76,1.92
			c1.78,1.87,7.32,5.63,23.22,5.63c0.48,0,0.97,0,1.47-0.01c18.79-0.26,23.04-2.51,25.26-4.9c0.77-0.83,1.18-1.93,1.19-3.05
			l0.32-20.08C53.23,17.67,52.93,12.85,39.85,12.63L39.85,12.63z"/>
	</g>
	<g>
		<rect x="29.55" y="36.81" class="st3" width="4.78" height="1.41"/>
	</g>
	<g class="st1">
		<ellipse cx="27.52" cy="54.27" rx="20.81" ry="1.75"/>
	</g>
	<g>
		<path class="st4" d="M47.18,12.82v-3.9L45.7,6.51l-3.34-1.86l-6.87-2.41l-3.9-0.56l-7.61-0.74l-5.01,0.74l-7.05,2.78L6.91,7.44
			l-0.93,5.38l0.37,3.53l1.48,3.9l1.48,2.23c0,0,2.41,1.11,2.78,1.11c0.37,0,4.64-0.74,4.64-0.74l3.8-1.76l1.3-2.04l2.78-2.23h3.16
			l2.78,1.3l2.41,3.16l3.53,1.48l4.27,0.74l2.04-0.74l2.6-1.86l1.86-4.08L47.18,12.82z"/>
		<g>
			<g>
				<path class="st2" d="M42,3.66c-5.09-2.26-10.22-3.41-15.26-3.41c-5.04,0-10.17,1.15-15.24,3.41L8.42,5.33
					c-1.55,0.9-2.49,2.24-2.7,3.85c-0.5,3.85-0.28,7.14,0.68,10.05c0.69,2.08,1.7,3.32,3.1,4.08c1.02,0.55,3.08,0.86,3.08,0.86
					c0.25,0.01,0.5,0.02,0.75,0.02c3.59,0,6.47-1.28,8.81-3.91l0.08-0.09c0.14-0.16,0.28-0.31,0.36-0.47
					c0.73-1.43,2.24-2.29,4.03-2.29c1.77,0,3.42,0.85,4.33,2.22c1.98,3.01,5.08,4.54,9.22,4.54h0.75c0,0,1.97-0.25,2.59-0.56
					c1.73-0.86,2.9-2.28,3.64-4.57c1.07-3.3,0.94-6.72,0.71-9.32c-0.17-1.95-1.16-3.47-2.95-4.5L42,3.66z M45.8,18.48
					c-0.95,3.02-2.51,4.22-5.58,4.26c-0.07,0-0.13,0-0.2,0h0c-3.53,0-6.28-1.44-8.18-4.27c-1.06-1.58-2.97-2.53-5.1-2.53
					c-2.17,0-4.09,0.97-5.13,2.59c-1.66,2.58-4.84,4.25-8.1,4.25c-0.88,0-1.72-0.13-2.51-0.37c-1.21-0.38-2.12-1.23-2.79-2.59
					c-0.71-1.44-1.09-3.1-1.19-5.09c-0.07-1.49-0.05-3.08,0.05-4.84c0.08-1.4,0.83-2.57,2.17-3.4c3.18-1.97,6.81-3.31,11.42-4.21
					c2.05-0.4,4.12-0.61,6.17-0.61c5.29,0,10.51,1.3,15.93,3.97c0.16,0.08,0.32,0.17,0.46,0.25c0.13,0.08,0.26,0.15,0.39,0.22
					c1.95,0.98,2.93,2.59,2.89,4.79c-0.01,0.36,0,0.73,0,1.09c0,0.17,0,0.34,0,0.49C46.56,14.87,46.34,16.77,45.8,18.48z"/>
			</g>
			<g>
				<path class="st2" d="M11.31,13.49c-0.17-0.01-0.68-0.02-0.7-1.07c0-0.12,0-0.23,0-0.39l0-0.32c0-0.04-0.01-0.08-0.02-0.12
					c-0.19-0.71,0.17-1.33,1.06-1.84c0.78-0.45,1.66-0.85,2.67-1.22c0.08-0.03,0.17-0.05,0.24-0.05c0.29,0,0.53,0.2,0.62,0.51
					c0.17,0.58-0.29,0.83-0.57,0.93c-0.1,0.03-0.2,0.07-0.3,0.1c-0.32,0.11-0.64,0.22-0.96,0.35c-0.98,0.42-1.41,1.11-1.32,2.1
					c0.03,0.34-0.04,0.63-0.2,0.81c-0.12,0.13-0.29,0.2-0.5,0.2L11.31,13.49z"/>
			</g>
		</g>
	</g>
	<path class="st3" d="M25.75,26.96c-24.47,0-24.72-8-24.72-8.29l0,22.95c0,0.73,0.27,1.45,0.77,1.99c1.83,2,7.68,6.06,24.77,5.82
		c18.85-0.27,23.11-2.6,25.33-5.08c0.78-0.86,1.19-1.99,1.19-3.16l0.15-21.86C53.25,19.33,50.63,26.96,25.75,26.96z M23.03,43.63
		h-1.99l-3.42-8.83h1.99l2.43,6.26l2.42-6.26h1.99L23.03,43.63z M34.66,43.63l-1.38-3.4h-3.73v3.4h-1.99v-7.84l1-1h6.77l1,1.01v3.42
		l-1,1.01h-0.05l1.38,3.4H34.66z"/>
</g>
</svg>
