<?xml version="1.0" encoding="utf-8"?>
<!-- Generator: Adobe Illustrator 27.3.1, SVG Export Plug-In . SVG Version: 6.00 Build 0)  -->
<svg version="1.1" id="Capa_1" xmlns="http://www.w3.org/2000/svg" xmlns:xlink="http://www.w3.org/1999/xlink" x="0px" y="0px"
	 viewBox="0 0 54 56" style="enable-background:new 0 0 54 56;" xml:space="preserve">
<style type="text/css">
	.st0{fill:#00AAFF;stroke:#000000;stroke-width:0.2622;stroke-miterlimit:10;}
	.st1{fill:#00FFFF;stroke:#000000;stroke-width:0.2622;stroke-miterlimit:10;}
	.st2{fill:none;stroke:#000000;stroke-width:0.2622;stroke-miterlimit:10;}
	.st3{opacity:0.2;}
	.st4{fill:#00AAFF;}
	.st5{fill:#FFFFFF;}
</style>
<g>
	<g>
		<path class="st0" d="M27.7,14.4V36c0,0.1,0.1,0.2,0.2,0.2l17.5,9.1c0.2,0.1,0.4,0,0.4-0.2V23.7c0-0.1-0.1-0.2-0.2-0.3L27.7,14.4
			C27.7,14.4,27.7,14.4,27.7,14.4z"/>
		<path class="st0" d="M27.7,14.4L8.3,24c-0.1,0.1-0.2,0.2-0.2,0.4v20.6c0,0.3,0.3,0.5,0.6,0.4l18.8-9c0.1-0.1,0.2-0.2,0.2-0.4
			L27.7,14.4C27.7,14.4,27.7,14.4,27.7,14.4z"/>
		<path class="st1" d="M27.6,35.9L8.2,45.3c-0.1,0.1-0.1,0.3,0,0.3l18.5,10c0.1,0,0.1,0,0.2,0l18.7-10c0.1-0.1,0.1-0.3,0-0.3
			l-17.8-9.4C27.7,35.9,27.7,35.9,27.6,35.9z"/>
		<g>
			<path d="M26.9,55.8L26.9,55.8L26.9,55.8L26.9,55.8L8.2,45.6c-0.1,0-0.1-0.1-0.1-0.2c0-0.1,0-0.1,0.1-0.2l4.4-2.2l0,0l2-0.9
				l13.1-6.5l0,0l18.2,9.8l-0.1,0.1L26.9,55.8z M21.8,52.8l5.1,2.8l4.1-2.3l-4.9-2.7L21.8,52.8z M26.2,50.5l5,2.8l4.8-2.6L31.2,48
				L26.2,50.5z M17.9,50.7l3.8,2l0,0l4.3-2.2l-3.8-2.1L17.9,50.7z M13.2,48.1l4.6,2.5l4.2-2.3l-4.5-2.5L13.2,48.1z M31.3,47.9
				l4.8,2.8l4.6-2.5L36,45.4L31.3,47.9z M22.3,48.3l3.8,2.1l4.9-2.6l-3.9-2.2L22.3,48.3z M17.6,45.7l4.5,2.5l4.9-2.7l-4.3-2.5
				L17.6,45.7z M36.1,45.4l4.8,2.7l4.8-2.6l-4.8-2.6l0,0L36.1,45.4z M12.8,43.2l-4.5,2.2c0,0,0,0,0,0c0,0,0,0,0,0l4.7,2.5l0,0
				l4.3-2.3L12.8,43.2z M27.3,45.6l3.9,2.2l4.7-2.4l-4.1-2.3L27.3,45.6z M12.9,43.1l4.5,2.5l5-2.7l-4.3-2.4l-3.6,1.7L12.9,43.1z
				 M22.8,43l4.3,2.5l4.5-2.5l-4.3-2.4L22.8,43z M31.9,43l4.1,2.3l4.7-2.5l-4.3-2.3L31.9,43z M27.5,40.5l4.3,2.4l4.5-2.5L32,38.1
				L27.5,40.5z M18.4,40.5l4.3,2.5l4.5-2.4L23,38.2L18.4,40.5z M23.1,38.1l4.2,2.3l4.4-2.3l-4.1-2.3L23.1,38.1z"/>
		</g>
		<line class="st2" x1="27.7" y1="14.5" x2="27.7" y2="36"/>
	</g>
	<g>
		<g>
			
				<image style="overflow:visible;enable-background:new    ;" width="451" height="511" xlink:href="90831025.png"  transform="matrix(2.612822e-02 0 0 2.612822e-02 26.4803 25.5636)">
			</image>
		</g>
	</g>
	<g>
		<g>
			
				<image style="overflow:visible;enable-background:new    ;" width="431" height="511" xlink:href="90831027.png"  transform="matrix(2.658613e-02 0 0 2.658613e-02 15.8339 27.1316)">
			</image>
		</g>
	</g>
	<g class="st3">
		<ellipse cx="27.7" cy="45" rx="11.5" ry="1.4"/>
	</g>
	<g>
		<path class="st4" d="M23,24.4l-0.3,0c0,0,0,0,0,0l0.3,0.2c0,0,0,0,0,0h0.3c0,0,0,0,0,0L23,24.4C23,24.4,23,24.4,23,24.4z"/>
		<path class="st4" d="M25.6,25.4l-0.5-0.1l0.2,0.1c0,0,0,0,0.1,0l0.5,0L25.6,25.4C25.7,25.4,25.6,25.4,25.6,25.4z"/>
		<path class="st4" d="M29.4,24.8l-0.8,0c0,0,0,0,0,0l0.2,0.1c0,0,0,0,0.1,0l0.8,0c0,0,0,0,0,0L29.4,24.8
			C29.5,24.8,29.5,24.8,29.4,24.8z"/>
		<polygon class="st4" points="24.5,16.9 24.5,17 24.6,17.1 24.6,17 24.8,16.1 		"/>
		<path class="st4" d="M22.2,21.9L22,21.8c0,0,0,0,0,0l0.2,0.3c0,0,0.1,0,0.1,0l0.3,0c0,0,0,0,0,0L22.2,21.9
			C22.3,21.9,22.2,21.9,22.2,21.9z"/>
		<polygon class="st4" points="24.4,17.1 24.2,17.7 24.4,17.9 24.4,17.8 24.6,17.2 		"/>
		<polygon class="st4" points="23.8,19.6 24.4,17.9 24.1,17.7 23.4,19.2 		"/>
		<polygon class="st4" points="23.5,20.3 23.7,19.7 23.4,19.3 23.1,19.8 		"/>
		<polygon class="st4" points="22.6,21.1 22.7,21.1 23.1,21.5 23.3,21 23.3,21 23.3,20.9 23.3,20.9 23.4,20.6 23.5,20.3 23.1,19.9 
			22.6,21 		"/>
		<polygon class="st4" points="23,21.8 23.1,21.5 22.6,21.2 22.6,21.2 22.4,21.9 22.7,22.1 23,21.9 		"/>
		<polygon class="st4" points="22,21 21.9,21.7 22.3,21.9 22.3,21.9 22.3,21.9 22.4,21.9 22.5,21.1 		"/>
		<polygon class="st4" points="22.6,21 23.1,19.8 22.4,19.6 22,20.8 22,20.9 22.6,21.1 		"/>
		<polygon class="st4" points="23.3,19.2 22.5,19 22.4,19.5 23.1,19.8 		"/>
		<polygon class="st4" points="24.1,17.7 23.2,17.4 22.6,18.9 22.6,18.9 23.4,19.2 		"/>
		<polygon class="st4" points="24.4,17 23.5,16.7 23.5,16.7 23.2,17.4 24.1,17.6 		"/>
		<polygon class="st4" points="24.4,16.9 25,15.5 24.3,15.1 23.6,16.6 24.4,17 		"/>
		<polygon class="st4" points="25.3,13.6 24.6,13.8 24.3,15 25,15.4 		"/>
		<polygon class="st4" points="25.1,15.5 26.2,16 26.7,13.5 26.7,13.5 25.4,13.6 		"/>
		<polygon class="st4" points="26.1,16.3 25.4,18 25.8,18.2 		"/>
		<polygon class="st4" points="25.4,18 26.2,16 25,15.5 25,15.6 25,15.6 24.7,17 24.5,17.8 24.4,17.9 		"/>
		<polygon class="st4" points="24.2,18.7 25.1,18.8 25.3,18.1 24.4,18 		"/>
		<polygon class="st4" points="25.1,18.8 25.6,19.3 25.7,19.1 25.8,18.3 25.4,18.1 		"/>
		<polygon class="st4" points="25.1,21.2 25.6,19.4 25.1,18.9 24.3,20.9 24.3,20.9 25.1,21.5 		"/>
		<polygon class="st4" points="23.5,20.6 23.4,20.9 24.2,20.9 24.2,20.9 25,18.8 24.2,18.7 		"/>
		<polygon class="st4" points="23.9,21.8 24,21.7 24.2,21 23.4,21 23.1,21.7 		"/>
		<polygon class="st4" points="25.1,21.6 24.3,21 24,21.8 24,21.8 24.9,22.6 25.1,21.6 		"/>
		<polygon class="st4" points="24.9,22.7 24,21.9 23.5,23.3 24.3,23.8 24.8,22.9 24.9,22.7 		"/>
		<polygon class="st4" points="23.1,21.8 23.1,22 22.8,22.7 22.7,23.2 23.5,23.3 23.9,21.8 		"/>
		<polygon class="st4" points="23.5,23.3 22.7,23.2 22.6,23.6 22.5,24.2 22.5,24.2 23,24.3 		"/>
		<polygon class="st4" points="23.1,24.3 23.5,24.5 23.5,24.5 24.2,23.9 23.5,23.3 		"/>
		<polygon class="st4" points="25.7,25.4 26.1,25.5 26.2,25.5 26.6,24.7 26.6,24.6 25.9,24.2 		"/>
		<polygon class="st4" points="25.9,24.1 24.8,24 24.9,25.3 24.9,25.3 25.6,25.4 		"/>
		<polygon class="st4" points="26,24.1 26.6,24.6 27,23 27,23 27,23 27,22.9 26.4,22.4 		"/>
		<polygon class="st4" points="25,22.4 24.9,22.7 24.9,22.9 24.8,24 25.9,24.1 26.3,22.4 		"/>
		<polygon class="st4" points="26.4,22.3 27,22.9 27.3,22.1 26.5,21.3 		"/>
		<polygon class="st4" points="26.5,21.3 25.2,21.2 25,22.3 26.3,22.3 26.4,21.3 		"/>
		<polygon class="st4" points="26.5,21.3 27.3,22 28,20.1 27.2,19.2 		"/>
		<polygon class="st4" points="27.2,19.2 25.6,19.4 25.2,21.2 26.5,21.2 		"/>
		<polygon class="st4" points="27.3,19.1 28,20 28.4,19.4 28.4,19.4 27.5,18.3 		"/>
		<polygon class="st4" points="27.4,18.2 25.8,18.3 25.7,19.1 25.7,19.3 27.2,19.1 		"/>
		<polygon class="st4" points="28.2,16.2 26.2,16 25.9,18.3 27.4,18.2 		"/>
		<polygon class="st4" points="28.4,19.3 28.2,16.3 27.5,18.2 28.4,19.3 		"/>
		<polygon class="st4" points="29.9,21.7 30.5,22.5 30.6,21.7 30.6,21.7 30.6,21.7 30.6,21.7 30.1,20.9 		"/>
		<polygon class="st4" points="30.1,20.8 30.7,21.6 31.1,19.8 31.1,19.7 30.4,18.8 		"/>
		<polygon class="st4" points="30.4,18.7 31.1,19.6 31.2,18.8 30.6,17.9 		"/>
		<path class="st4" d="M31.2,12.6l-0.2,1.5c0,0.1,0,0.1,0,0.2l1,1.1c0,0,0,0,0,0l0.3-1.2l0,0L31.2,12.6
			C31.2,12.6,31.2,12.6,31.2,12.6z"/>
		<path class="st4" d="M30.7,16.1l-0.1,1.6c0,0.1,0,0.2,0.1,0.2l0.5,0.7c0,0,0.1,0,0.1,0l0.3-1.7l0,0l0,0l0,0L30.7,16.1
			C30.7,16,30.7,16,30.7,16.1z"/>
		<path class="st4" d="M30.9,14.3l-0.2,1.5c0,0.1,0,0.1,0,0.1l0.7,0.8c0,0,0.1,0,0.1,0l0.4-1.3l0,0L30.9,14.3L30.9,14.3z"/>
		<polygon class="st4" points="26.7,13.5 26.2,16 28.2,16.1 28.2,16.1 28.4,13.6 26.7,13.5 		"/>
		<polygon class="st4" points="26.7,13.4 28.4,13.6 28.4,13.5 28.3,11.1 27,10.5 		"/>
		<polygon class="st4" points="25.4,13.5 26.7,13.4 26.9,10.5 26,10.4 		"/>
		<polygon class="st4" points="25.9,10.4 25.6,10.4 25.6,10.3 25.9,10.3 26.7,7.8 25.6,10.3 24.6,13.7 24.6,13.8 25.4,13.5 		"/>
		<polygon class="st4" points="26,10.3 26.9,10.4 28.2,7.2 26.9,7.5 		"/>
		<polygon class="st4" points="28.2,7.3 27,10.4 28.3,11 		"/>
		<polygon class="st4" points="26.9,7.4 28.2,7.1 28.2,7.1 28.5,5.8 27.2,6.8 		"/>
		<polygon class="st4" points="31.3,7.2 31.3,5.8 28.6,5.8 28.3,7.1 		"/>
		<path class="st4" d="M27.4,6.4L27.4,6.4L27.4,6.4l-0.1,0.2l1.2-0.9l0-3.3c-0.1,0.1-0.3,0.1-0.4,0.2L27.4,6.4z"/>
		<path class="st4" d="M28.6,5.7l2.7,0L32.1,1c-1.2,0.4-2.4,0.8-3.6,1.4L28.6,5.7z"/>
		<path class="st4" d="M35.2,1.4l0.5-1.1c-0.6,0.1-1.1,0.2-1.7,0.3L35.2,1.4z"/>
		<path class="st4" d="M31.3,5.7l1.2,0.9l2.7-5.2L34,0.6c-0.6,0.1-1.2,0.3-1.8,0.5L31.3,5.7z"/>
		<polygon class="st4" points="32.4,8 32.4,6.7 32.4,6.7 31.3,5.8 31.4,7.2 		"/>
		<polygon class="st4" points="32.4,8.1 32.4,8.1 32.4,8.1 31.6,7.4 32.8,9.3 33.9,9.2 32.4,8.1 		"/>
		<path class="st4" d="M32.9,9.5l1.5,2.4c0,0.1,0.1,0.1,0.1,0.1l1,0.2c0,0,0.1,0,0-0.1L34,9.3l0,0L32.9,9.5
			C32.9,9.4,32.8,9.4,32.9,9.5z"/>
		<path class="st4" d="M34.5,12.1l0.7,1.4c0,0,0.1,0.1,0.1,0.1l1.1,0.1c0,0,0.1,0,0-0.1l-0.8-1.4l0,0L34.5,12.1
			C34.5,12,34.5,12.1,34.5,12.1z"/>
		<path class="st4" d="M35.4,13.6C35.3,13.6,35.3,13.7,35.4,13.6l0.4,0.7l0,0l1.2,0.3c0,0,0,0,0,0l-0.4-0.8c0,0,0-0.1-0.1-0.1
			L35.4,13.6z"/>
		<path class="st4" d="M35.8,14.4C35.8,14.4,35.8,14.4,35.8,14.4l0.6,1c0,0,0,0,0,0l1.2,0.2c0,0,0,0,0,0l-0.5-1c0,0,0,0,0,0
			L35.8,14.4z"/>
		<path class="st4" d="M36.5,15.6C36.4,15.6,36.4,15.6,36.5,15.6l0.7,1.1c0,0,0,0,0.1,0l0.9,0.2c0,0,0,0,0,0l-0.4-1.1
			c0,0,0-0.1-0.1-0.1L36.5,15.6z"/>
		<path class="st4" d="M37.1,16.8l-0.7,0.4c0,0,0,0,0,0l0.9,0.2c0,0,0.1,0,0.1,0l0.6-0.4l0,0l-0.9-0.2
			C37.2,16.7,37.1,16.8,37.1,16.8z"/>
		<path class="st4" d="M37.1,16.6l-0.7-1.1c0,0,0,0,0,0l-0.8,0.9c0,0,0,0,0,0.1l0.7,0.6c0,0,0,0,0,0L37.1,16.6
			C37.1,16.7,37.1,16.7,37.1,16.6z"/>
		<path class="st4" d="M35.5,16.4l0.8-0.9l-0.6-1c0,0-0.1,0-0.1,0l-1,1c0,0,0,0.1,0,0.1L35.5,16.4C35.5,16.4,35.5,16.4,35.5,16.4z"
			/>
		<polygon class="st4" points="35.2,13.7 34.2,14.8 34.5,15.5 35.7,14.4 		"/>
		<path class="st4" d="M35.2,13.5l-0.7-1.4c0,0,0,0,0,0l-0.7,1.8c0,0.1,0,0.1,0,0.2l0.5,0.6l0,0l0,0l1-1.1
			C35.2,13.6,35.2,13.6,35.2,13.5z"/>
		<path class="st4" d="M33.6,14l0.8-1.9c0,0,0-0.1,0-0.1l-1.5-2.4c0,0,0,0,0,0l0.1,3.5l0,0l0.5,0.8L33.6,14L33.6,14L33.6,14z"/>
		<path class="st4" d="M32.9,13.1C32.9,13.1,32.9,13.1,32.9,13.1l-1.6-0.6c0,0,0,0,0,0l1,1.4c0,0,0.1,0.1,0.1,0.1l0.9-0.1
			c0,0,0,0,0,0L32.9,13.1z"/>
		<polygon class="st4" points="31.4,7.3 31.4,7.3 31.2,12.4 32.8,13 32.7,9.4 		"/>
		<polygon class="st4" points="29.7,23.5 30.2,23.9 30.5,22.6 30.5,22.6 29.9,21.8 		"/>
		<polygon class="st4" points="29.7,24.9 30.2,24 29.7,23.5 29.5,24.7 		"/>
		<polygon class="st4" points="28.5,23.5 28.5,24.7 29.5,24.7 29.7,23.5 		"/>
		<polygon class="st4" points="29.8,21.7 28.4,21.8 28.5,23.4 28.5,23.4 29.7,23.4 		"/>
		<polygon class="st4" points="30,20.8 30,20.8 28.5,20.9 28.4,21.7 29.8,21.7 		"/>
		<polygon class="st4" points="30.4,18.7 28.5,18.9 28.5,18.8 30.4,18.7 30.5,17.9 30.5,17.8 28.4,18 28.5,19.2 28.5,19.4 
			28.5,20.8 28.5,20.8 28.5,20.8 30,20.8 		"/>
		<path class="st4" d="M30.6,16.1C30.6,16,30.6,16,30.6,16.1l-2.3,0.1l0.1,1.8l2.1-0.2L30.6,16.1z"/>
		<path class="st4" d="M30.7,15.8l0.2-1.5l0-0.1l-2.3-0.6l-0.2,2.4h0l0,0.1l2.2-0.2C30.6,15.9,30.6,15.8,30.7,15.8z"/>
		<polygon class="st4" points="31.1,12.5 28.3,11.1 28.5,13.5 28.5,13.6 30.8,14.1 		"/>
		<polygon class="st4" points="28.3,11 31.1,12.4 31.3,7.2 28.2,7.2 		"/>
		<path class="st5" d="M27.2,6.7L27.2,6.7l-1.7,3.5l-0.9,3.5l0,0.1l0,0L24.2,15l0,0l-0.8,1.7l-0.3,0.6l0,0l-0.6,1.5l-0.2,0.7l0,0
			L22,20.8l0,0.1l0,0l-0.1,0.8l0,0l0,0l0.4,0.5l0.5-0.1l0.1,0l0.3-0.2l-0.2,0.7l-0.3,1l-0.1,0.6l0.1,0.1l0.5,0.3l0.5,0l0.1,0l0,0
			l0.7-0.7l0-0.1l0.6-0.9L24.8,24l0,0l0.1,1.3l0.1,0l0.4,0.2l0.7,0l0,0l0,0l0.1,0l0.4-0.9L27,23l0-0.1l0,0l0.3-0.8l0,0l0.7-2l0,0
			l0,0l0.3-0.6l0,0.1l0,1.3l-0.1,0.9h0l0,0l0.1,1.6l0,0.1l0,0l0,0l0,1.2l0,0h0v0l0.3,0.2l1,0l0.1,0l0.4-0.9l0,0l0.3-1.4l0,0l0.1-0.9
			l0,0l0.4-1.9l0,0l0.1-0.9l0-0.1l0,0l0.3-1.8l0,0l0.5-1.4l0,0l0.4-1.3l1.1-0.1l0,0l0.1,0.1l0,0l0.6,0.7l0,0l0,0l0.3,0.7l0,0.1
			l0.9,1l0.8,0.7l0,0l1.2,0.2l0.8-0.5l0,0l0-0.1l-0.5-1.2l0,0l-0.5-1l0,0l-0.5-0.9l0,0l-0.9-1.5l0,0L34,9.3l0,0l-1.5-1.2l0,0
			l0.1-1.3l0,0l2.7-5.2l0,0l0.6-1.2c0,0-0.1,0-0.1,0l-0.5,1.1L34,0.5c0,0-0.1,0-0.1,0l1.2,0.9l-2.7,5.2l-1.2-0.9L32.2,1
			c0,0,0,0-0.1,0l-0.9,4.7l-2.7,0l0-3.3c0,0,0,0-0.1,0l0,3.3l-1.2,0.9l0.1-0.2l0,0l0,0l0.7-3.8c0,0,0,0-0.1,0l-0.7,3.7L27.2,6.7z
			 M33.5,13.9l-0.5-0.8l0,0l-0.1-3.5c0,0,0,0,0,0l1.5,2.4c0,0,0,0.1,0,0.1L33.6,14L33.5,13.9L33.5,13.9L33.5,13.9z M32.8,13
			l-1.6-0.6l0.2-5.2l0,0l1.3,2.1L32.8,13z M31.1,12.4L28.3,11l-0.1-3.9l3.1,0.1L31.1,12.4z M24.5,17.8l0.2-0.9l0.4-1.4l0,0l0,0
			l1.1,0.5l-0.8,2L24.5,17.8L24.5,17.8z M24.4,17.9l-0.2-0.2l0.2-0.6l0.1,0.1L24.4,17.9L24.4,17.9z M24.6,17.1L24.5,17l0-0.1
			l0.3-0.9L24.6,17L24.6,17.1z M28.3,11.1l0.2,2.5l0,0l-1.7-0.2l0.2-2.9L28.3,11.1z M27,10.4l1.2-3.1l0.1,3.7L27,10.4z M28.4,13.6
			l-0.2,2.5l0,0l-2-0.2l0.5-2.5l0,0L28.4,13.6z M26.7,13.4l-1.2,0.1l0.6-3.1l0.9,0.1L26.7,13.4z M26.7,13.5L26.7,13.5L26.2,16
			l-1.1-0.5l0.4-1.9L26.7,13.5z M25.4,18l0.7-1.7l-0.3,1.9L25.4,18z M25.8,18.3l-0.1,0.8l0,0.2l-0.5-0.5l0.3-0.7L25.8,18.3z
			 M25.3,18.1l-0.3,0.7l-0.9-0.1l0.2-0.7L25.3,18.1z M25,18.8l-0.8,2.1l0,0l-0.8,0l0.1-0.3l0.7-1.9L25,18.8z M24.4,17.9l-0.6,1.7
			l-0.3-0.4l0.7-1.5L24.4,17.9z M23.7,19.7l-0.2,0.6l-0.4-0.4l0.3-0.5L23.7,19.7z M23.5,20.3l-0.1,0.3l-0.1,0.3h0l0,0.1l0,0
			l-0.2,0.5l-0.5-0.4l0,0l0,0l0.5-1.2L23.5,20.3z M23.4,21l0.8,0L24,21.7l0,0l-0.8,0L23.4,21z M24,21.8L24,21.8l0.3-0.8l0.8,0.6l0,0
			l-0.2,1L24,21.8z M24.3,20.9L24.3,20.9l0.8-2.1l0.5,0.5l-0.4,1.8l-0.1,0.4L24.3,20.9z M25.6,19.4l1.5-0.2l-0.7,2.1l-1.3-0.1
			L25.6,19.4z M25.7,19.3l0.1-0.2l0.1-0.8l1.6-0.1l-0.2,0.9L25.7,19.3z M25.9,18.3l0.4-2.2l2,0.2l-0.8,2L25.9,18.3z M27.5,18.2
			l0.7-1.9l0.2,3l0,0L27.5,18.2z M28.3,16.2l2.2-0.2c0.1,0,0.1,0,0.1,0.1l-0.1,1.7L28.4,18L28.3,16.2z M28.3,16.1L28.3,16.1
			L28.3,16.1l0.2-2.5l2.3,0.6l0,0.1l-0.2,1.5c0,0.1-0.1,0.1-0.1,0.1L28.3,16.1z M28.5,13.6L28.5,13.6l-0.1-2.5l2.8,1.4l-0.3,1.7
			L28.5,13.6z M26.9,10.4L26,10.3l0.9-2.8l1.3-0.3L26.9,10.4z M24.6,13.7l0.9-3.4l1.2-2.5l-0.8,2.5l-0.4,0l0,0.1l0.4,0l-0.6,3.1
			L24.6,13.7L24.6,13.7z M24.6,13.8l0.7-0.2L25,15.4L24.3,15L24.6,13.8z M24.3,15.1l0.7,0.5l-0.6,1.4l0,0.1l-0.8-0.4L24.3,15.1z
			 M23.5,16.7L23.5,16.7l0.9,0.3l-0.3,0.6l-0.9-0.3L23.5,16.7z M22.6,18.9l0.6-1.5l0.9,0.3l-0.7,1.5L22.6,18.9L22.6,18.9z M22.5,19
			l0.8,0.3l-0.3,0.5l-0.7-0.2L22.5,19z M22,20.8l0.3-1.2l0.7,0.2L22.6,21l0,0L22,20.9L22,20.8z M22.5,22.1l-0.3,0c0,0-0.1,0-0.1,0
			l-0.2-0.3c0,0,0,0,0,0l0.3,0.1c0,0,0,0,0.1,0L22.5,22.1C22.5,22.1,22.5,22.1,22.5,22.1z M22.4,21.9L22.4,21.9L22.4,21.9L22.4,21.9
			l-0.5-0.2L22,21l0.5,0.2L22.4,21.9z M22.7,22.1l-0.3-0.2l0.2-0.8l0,0l0.5,0.4L23,21.8l-0.1,0L22.7,22.1z M22.5,24.2l0.1-0.6
			l0.1-0.4l0.8,0.1l-0.4,1L22.5,24.2L22.5,24.2z M23.3,24.5H23c0,0,0,0,0,0l-0.3-0.2c0,0,0,0,0,0l0.3,0c0,0,0,0,0,0L23.3,24.5
			C23.3,24.5,23.3,24.5,23.3,24.5z M23.5,24.5L23.5,24.5l-0.4-0.2l0.4-1l0.7,0.5L23.5,24.5z M23.5,23.3l-0.8-0.1l0.1-0.5l0.2-0.7
			l0-0.1l0.8,0L23.5,23.3z M24.8,22.9l-0.6,0.9l-0.7-0.5l0.4-1.4l0.9,0.8l0,0.1L24.8,22.9z M24.9,25.3L24.8,24l1,0.1l-0.2,1.2
			L24.9,25.3L24.9,25.3z M25.4,25.5C25.4,25.5,25.4,25.5,25.4,25.5l-0.3-0.1l0.5,0.1c0,0,0,0,0.1,0l0.2,0.1L25.4,25.5z M26.6,24.7
			l-0.4,0.8l-0.1,0l-0.4-0.1l0.2-1.2L26.6,24.7L26.6,24.7z M25.9,24.1L24.8,24l0.1-1.1l0-0.2l0.1-0.4l1.3,0L25.9,24.1z M27,23L27,23
			L27,23l-0.4,1.6L26,24.1l0.4-1.7L27,23L27,23z M26.3,22.3l-1.3,0l0.2-1.1l1.3,0.1l0,0L26.3,22.3z M27.3,22.1L27,22.9l-0.6-0.5
			l0.1-1L27.3,22.1z M28,20.1l-0.7,2l-0.8-0.8l0.7-2.1L28,20.1z M28.4,19.4L28,20l-0.8-0.9l0.2-0.8L28.4,19.4L28.4,19.4z M28.5,20.8
			L28.5,20.8l0-1.4l0-0.2L28.4,18l2.1-0.2l0,0l-0.1,0.8l-1.9,0.1l0,0.1l1.9-0.1l-0.3,2L28.5,20.8L28.5,20.8z M28.5,20.9l1.5-0.1l0,0
			l-0.2,0.8l-1.4,0.1L28.5,20.9z M28.5,23.4l-0.1-1.6l1.4-0.1l-0.1,1.7L28.5,23.4L28.5,23.4z M29.6,24.9l-0.8,0c0,0,0,0-0.1,0
			l-0.2-0.1c0,0,0,0,0,0l0.8,0c0,0,0,0,0.1,0L29.6,24.9C29.6,24.9,29.6,24.9,29.6,24.9z M28.5,24.7l0-1.2l1.2,0l-0.2,1.2L28.5,24.7z
			 M30.2,24l-0.4,0.9l-0.2-0.2l0.2-1.2L30.2,24z M30.5,22.6L30.5,22.6l-0.3,1.4l-0.4-0.5l0.1-1.7L30.5,22.6z M30.6,21.7L30.6,21.7
			L30.6,21.7L30.6,21.7l-0.1,0.8l-0.6-0.8l0.2-0.8L30.6,21.7z M31.1,19.7L31.1,19.7l-0.4,1.8l-0.6-0.8l0.3-2L31.1,19.7z M31.2,18.8
			l-0.1,0.8l-0.7-0.9l0.1-0.8L31.2,18.8z M31.5,16.9L31.5,16.9L31.5,16.9L31.5,16.9l-0.3,1.7c0,0,0,0-0.1,0l-0.5-0.7
			c0-0.1-0.1-0.1-0.1-0.2l0.1-1.6c0,0,0,0,0.1,0L31.5,16.9z M31.9,15.5L31.9,15.5l-0.4,1.3c0,0,0,0-0.1,0L30.8,16c0,0-0.1-0.1,0-0.1
			l0.2-1.5l0,0L31.9,15.5z M32.3,14.1L32.3,14.1L32,15.3c0,0,0,0,0,0l-1-1.1c0,0-0.1-0.1,0-0.2l0.2-1.5c0,0,0,0,0,0L32.3,14.1z
			 M33.3,13.9L32.4,14c-0.1,0-0.1,0-0.1-0.1l-1-1.4c0,0,0,0,0,0l1.6,0.5c0,0,0.1,0,0.1,0.1L33.3,13.9C33.4,13.9,33.4,13.9,33.3,13.9
			z M34.2,14.7L34.2,14.7l-0.5-0.6c0,0,0-0.1,0-0.2l0.7-1.8c0,0,0,0,0,0l0.7,1.4c0,0,0,0.1,0,0.1L34.2,14.7L34.2,14.7z M34.2,14.8
			l1-1.1l0.4,0.7l-1.1,1L34.2,14.8z M34.6,15.5C34.6,15.5,34.6,15.5,34.6,15.5l1-1c0,0,0.1,0,0.1,0l0.6,1l-0.8,0.9c0,0,0,0-0.1,0
			L34.6,15.5z M36.2,17.2l-0.7-0.6c0,0,0,0,0-0.1l0.8-0.9c0,0,0,0,0,0l0.7,1.1c0,0,0,0.1,0,0.1L36.2,17.2
			C36.3,17.2,36.2,17.2,36.2,17.2z M38.1,17l-0.6,0.4c0,0-0.1,0-0.1,0l-0.9-0.2c0,0,0,0,0,0l0.7-0.4c0,0,0.1,0,0.1,0L38.1,17
			L38.1,17z M37.6,15.8l0.4,1.1c0,0,0,0,0,0l-0.9-0.2c0,0,0,0-0.1,0l-0.7-1.1c0,0,0,0,0,0L37.6,15.8C37.6,15.7,37.6,15.8,37.6,15.8z
			 M37.1,14.7l0.5,1c0,0,0,0,0,0l-1.2-0.2c0,0,0,0,0,0l-0.6-1c0,0,0,0,0,0L37.1,14.7C37.1,14.7,37.1,14.7,37.1,14.7z M36.6,13.8
			l0.4,0.8c0,0,0,0,0,0l-1.2-0.3l0,0l-0.4-0.7c0,0,0,0,0,0L36.6,13.8C36.5,13.7,36.6,13.7,36.6,13.8z M35.6,12.2l0.8,1.4
			c0,0,0,0.1,0,0.1l-1.1-0.1c0,0-0.1,0-0.1-0.1l-0.7-1.4c0,0,0-0.1,0-0.1L35.6,12.2L35.6,12.2z M34,9.3l1.6,2.8c0,0,0,0.1,0,0.1
			l-1-0.2c-0.1,0-0.1,0-0.1-0.1l-1.5-2.4c0,0,0-0.1,0-0.1L34,9.3L34,9.3z M33.9,9.2l-1.1,0.1l-1.2-1.9l0.8,0.6v0l0,0l0,0L33.9,9.2z
			 M32.4,6.7L32.4,6.7L32.4,8l-1-0.8l-0.1-1.4L32.4,6.7z M28.6,5.8l2.7,0l0.1,1.4l-3.1-0.1L28.6,5.8z M28.5,5.8l-0.3,1.3l0,0
			l-1.3,0.3l0.3-0.7L28.5,5.8z"/>
	</g>
</g>
</svg>
