<?xml version="1.0" encoding="utf-8"?>
<!-- Generator: Adobe Illustrator 24.3.0, SVG Export Plug-In . SVG Version: 6.00 Build 0)  -->
<svg version="1.1" id="Capa_1" xmlns="http://www.w3.org/2000/svg" xmlns:xlink="http://www.w3.org/1999/xlink" x="0px" y="0px"
	 viewBox="0 0 54 56" style="enable-background:new 0 0 54 56;" xml:space="preserve">
<style type="text/css">
	.st0{fill:#0097C6;}
	.st1{opacity:0.2;}
	.st2{fill:#FFFFFF;}
	.st3{fill:#00AAFF;}
	.st4{opacity:0.5;fill:#ADADAD;}
	.st5{fill:#EC8B56;}
	.st6{fill:#00AAFF;stroke:#000000;stroke-width:0.2643;stroke-miterlimit:10;}
	.st7{fill:#00FFFF;stroke:#000000;stroke-width:0.2643;stroke-miterlimit:10;}
	.st8{fill:#FFB680;}
	.st9{fill:#FFD6BB;}
	.st10{fill:none;stroke:#FFFFFF;stroke-width:1.0491;stroke-miterlimit:10;}
</style>
<g>
	<g>
		<g>
			<path class="st0" d="M39.55,24.53l0.65,0.03l0.23,0.01c0.15,0.01,0.27,0.01,0.4,0.02c0.32,0.01,0.65,0.01,0.97,0.01
				c0.68,0,1.38,0,2.05,0.06c1.27,0.12,2.32,0.75,3.05,1.83c2.3,3.45,4.56,6.89,6.75,10.21c0.11,0.17,0.19,0.37,0.27,0.58
				c0.03,0.08,0.07,0.17,0.1,0.25v4.47c-0.3,0.99-0.93,1.62-1.92,1.92H1.93c-1.59-0.65-1.94-1.19-1.94-2.97l0-0.4
				c0-0.28,0-0.56,0-0.83c0-0.36,0-0.67,0-0.93c-0.01-1.55-0.01-1.55,0.88-2.88c0.14-0.21,0.3-0.45,0.49-0.73
				C2.13,34,2.91,32.81,3.7,31.63c1.04-1.57,2.11-3.18,3.16-4.79c0.99-1.52,2.33-2.25,4.12-2.25l0.09,0c0.33,0,0.66,0.01,1,0.01
				c0.27,0,0.54,0,0.82,0c0.3,0,0.6,0,0.91,0h0.68 M27.09,42.86c7.91,0,15.88,0.01,23.69,0.02c0,0,0,0,0,0
				c0.99,0,1.51-0.13,1.83-0.47c0.39-0.41,0.37-1,0.33-1.83c-0.01-0.22-0.18-0.39-0.39-0.39h-0.21l-0.01,0.01H1.11l-0.03,0.35
				c-0.07,0.79-0.09,1.42,0.3,1.84c0.37,0.4,1,0.48,1.83,0.48C11.19,42.87,19.22,42.86,27.09,42.86z M4.31,39.21
				c0.49,0,0.89,0.01,1.26,0.02c0.04,0,0.08,0,0.12,0c0.62,0,1-0.26,1.27-0.88c1.24-2.88,2.51-5.79,3.75-8.61
				c0.44-0.99,0.87-1.99,1.31-2.98c0.05-0.11,0.09-0.23,0.14-0.36c0.02-0.06,0.04-0.12,0.07-0.18l0.17-0.45l-0.47-0.07
				c-0.29-0.04-0.56-0.06-0.82-0.06c-1.51,0-2.68,0.67-3.55,2.06c-1.47,2.31-3.01,4.63-4.51,6.88c-0.54,0.81-1.08,1.63-1.62,2.44
				c-0.19,0.29-0.56,0.84-0.18,1.49c0.27,0.47,0.73,0.71,1.36,0.71c0.25,0,0.48,0,0.71-0.01C3.63,39.21,3.97,39.21,4.31,39.21z
				 M43.01,25.67l-0.57,0.01l0.23,0.52c0.09,0.22,0.19,0.43,0.28,0.63c0.2,0.46,0.39,0.89,0.57,1.32c0.19,0.47,0.11,0.67-0.36,0.88
				c-0.28,0.12-0.55,0.25-0.8,0.38c-0.73,0.38-0.96,0.93-0.73,1.68c0.18,0.56,0.37,1.12,0.55,1.67c0.13,0.37,0.25,0.75,0.38,1.12
				c0.18,0.55,0.57,0.87,1.15,0.96c0.31,0.05,0.63,0.1,0.94,0.16c0.49,0.09,0.99,0.18,1.5,0.24c0.37,0.04,0.56,0.2,0.72,0.57
				c0.17,0.41,0.35,0.82,0.54,1.23c0.22,0.49,0.44,1,0.65,1.51c0.19,0.46,0.5,0.67,0.98,0.67c0.02,0,0.05,0,0.07,0
				c0.3-0.01,0.63-0.02,1.02-0.02c0.3,0,0.6,0,0.9,0.01l0.39,0c0.66,0,1.11-0.25,1.39-0.75c0.34-0.63,0-1.14-0.22-1.48
				c-1.05-1.58-2.1-3.17-3.14-4.75c-0.78-1.18-1.56-2.36-2.34-3.55c-0.1-0.15-0.19-0.29-0.29-0.44c-0.28-0.44-0.58-0.89-0.9-1.31
				c-0.66-0.87-1.58-1.29-2.8-1.29L43.01,25.67z M14.56,25.18c-0.16,0-0.31,0.02-0.45,0.05c-0.39,0.06-0.67,0.95-0.78,1.2
				c-1.53,3.48-3.08,7.01-4.57,10.44l-0.55,1.25c-0.05,0.12-0.1,0.24-0.15,0.38c-0.02,0.06-0.05,0.12-0.07,0.19l-0.2,0.52h39.39
				l-0.23-0.53c-0.08-0.18-0.15-0.35-0.23-0.52c-0.22-0.51-0.43-0.99-0.66-1.47c-0.15-0.31-0.57-0.41-0.65-0.43
				c-0.54-0.11-1.13-0.21-1.81-0.32c-1.05-0.16-1.71-0.71-2.04-1.67l-0.15-0.44c-0.27-0.8-0.56-1.62-0.79-2.43
				c-0.1-0.34-0.13-0.71-0.1-1.06c0.09-0.86,0.57-1.48,1.52-1.95l0.32-0.16l-0.14-0.33c-0.03-0.08-0.07-0.16-0.1-0.23
				c-0.05-0.11-0.1-0.21-0.12-0.29c-0.24-1.17-0.92-2.23-2.03-2.23c-0.18,0-0.38,0.02-0.59,0.05L14.56,25.18z"/>
		</g>
	</g>
	<g class="st1">
		<ellipse cx="27.05" cy="37.48" rx="11.14" ry="0.93"/>
	</g>
	<g>
		<path class="st0" d="M43.56,17.39c0.07-1.87-0.07-5.11-8.31-5.25v8.54v3.69h8.41L43.56,17.39z"/>
		<path class="st0" d="M10.95,17.39c-0.07-1.87,0.07-5.11,8.1-5.25v8.54v3.69h-8.2L10.95,17.39z"/>
		<g>
			<path class="st2" d="M35.41,12.22c8.11,0.17,8.11,3.19,8.11,5.19l-0.2,12.62c0,0.68-0.26,1.33-0.71,1.81
				c-1.28,1.38-3.66,2.86-15.76,3.03c-0.31,0-0.62,0.01-0.92,0.01c-10.08,0-13.49-2.44-14.48-3.49c-0.28-0.3-0.44-0.69-0.44-1.1
				V17.65c0-0.09,0-0.19,0-0.29c-0.03-1.86-0.07-4.96,7.91-5.13v8.66v0.13l0.13,0.02c2.09,0.34,4.54,0.52,7.31,0.52
				c3.41,0,6.42-0.27,8.95-0.8l0.12-0.03v-0.12V12.22 M35.26,12.07v8.54c-2.3,0.48-5.21,0.8-8.92,0.8c-2.96,0-5.35-0.2-7.28-0.52
				v-8.82c-8.72,0.15-8.2,3.76-8.2,5.58V30.3c0,0.45,0.17,0.88,0.48,1.2c1.12,1.18,4.6,3.54,14.59,3.54c0.3,0,0.61,0,0.93-0.01
				c11.81-0.17,14.48-1.58,15.87-3.08c0.49-0.52,0.74-1.21,0.75-1.91l0.2-12.62C43.66,15.24,43.48,12.21,35.26,12.07L35.26,12.07z"
				/>
		</g>
		<g>
			<rect x="28.78" y="26.94" class="st3" width="2.99" height="0.88"/>
			<path class="st3" d="M26.38,21.18c-15.38,0-15.53-5.03-15.54-5.21l0,14.42c0,0.46,0.17,0.91,0.48,1.25
				c1.15,1.25,4.83,3.81,15.57,3.66c11.84-0.17,14.52-1.63,15.92-3.19c0.49-0.54,0.75-1.25,0.75-1.98l0.1-13.74
				C43.66,16.38,42.02,21.18,26.38,21.18z M26.83,31.2h-1.67l-1.1-1.57l-1.11,1.57h-1.67l1.94-2.76l-1.94-2.76h1.67l1.11,1.58
				l1.11-1.58h1.66l-1.94,2.76L26.83,31.2z M31.97,31.2l-0.86-2.12h-2.33v2.12h-1.25V26.3l0.62-0.62h4.23l0.62,0.63v2.14l-0.62,0.63
				h-0.03l0.86,2.12H31.97z"/>
		</g>
	</g>
</g>
</svg>
